<svg width="24" height="24" viewBox="0 0 24 24" fill="none" xmlns="http://www.w3.org/2000/svg">
<path id="Vector" d="M23.7719 22.6939L17.5756 16.5966C19.1982 14.8337 20.1952 12.5022 20.1952 9.93665C20.1944 4.44844 15.6739 0 10.0972 0C4.52048 0 0 4.44844 0 9.93665C0 15.4249 4.52048 19.8733 10.0972 19.8733C12.5067 19.8733 14.7167 19.0399 16.4526 17.6543L22.6729 23.7756C22.976 24.0742 23.4681 24.0742 23.7712 23.7756C23.8433 23.7052 23.9006 23.6211 23.9397 23.5283C23.9788 23.4354 23.999 23.3357 23.9991 23.2349C23.9992 23.1342 23.9791 23.0344 23.9401 22.9415C23.9011 22.8486 23.8439 22.7644 23.7719 22.6939ZM10.0972 18.3445C5.37868 18.3445 1.5536 14.5802 1.5536 9.93665C1.5536 5.29312 5.37868 1.52881 10.0972 1.52881C14.8157 1.52881 18.6408 5.29312 18.6408 9.93665C18.6408 14.5802 14.8157 18.3445 10.0972 18.3445Z" fill="white"/>
</svg>
