<svg width="60" height="60" viewBox="0 0 60 60" fill="none" xmlns="http://www.w3.org/2000/svg">
<g id="icon">
<path id="bg" d="M0 30C0 13.4315 13.4315 0 30 0C46.5685 0 60 13.4315 60 30C60 46.5685 46.5685 60 30 60C13.4315 60 0 46.5685 0 30Z" fill="url(#paint0_linear_110_218)"/>
<g id="Group">
<path id="Vector" d="M22.178 38.3415V15.0712C22.178 13.9914 21.7491 12.9559 20.9856 12.1924C20.2221 11.4289 19.1865 11 18.1068 11C17.027 11 15.9915 11.4289 15.228 12.1924C14.4645 12.9559 14.0356 13.9914 14.0356 15.0712V38.3415C13.1138 39.166 12.464 40.251 12.1723 41.4529C11.8806 42.6548 11.9607 43.9169 12.402 45.0722C12.8433 46.2276 13.625 47.2217 14.6437 47.9231C15.6624 48.6245 16.87 49 18.1068 49C19.3436 49 20.5512 48.6245 21.5699 47.9231C22.5886 47.2217 23.3703 46.2276 23.8116 45.0722C24.2529 43.9169 24.333 42.6548 24.0413 41.4529C23.7496 40.251 23.0998 39.166 22.178 38.3415ZM18.1068 47.6408C17.1229 47.6413 16.1632 47.3362 15.3603 46.7676C14.5574 46.199 13.951 45.3949 13.6249 44.4667C13.2988 43.5385 13.2691 42.5318 13.54 41.586C13.8108 40.6402 14.3688 39.8018 15.1369 39.1869C15.2165 39.1235 15.2809 39.0429 15.3252 38.9511C15.3695 38.8594 15.3925 38.7589 15.3927 38.657V15.0712C15.3927 14.3514 15.6786 13.661 16.1876 13.152C16.6966 12.643 17.387 12.3571 18.1068 12.3571C18.8266 12.3571 19.517 12.643 20.026 13.152C20.535 13.661 20.8209 14.3514 20.8209 15.0712V38.657C20.8209 38.759 20.844 38.8596 20.8882 38.9515C20.9325 39.0434 20.997 39.1241 21.0767 39.1876C21.8445 39.8026 22.4022 40.6409 22.6729 41.5866C22.9436 42.5323 22.9139 43.5387 22.5878 44.4668C22.2618 45.3949 21.6555 46.1988 20.8527 46.7673C20.05 47.3359 19.0905 47.6411 18.1068 47.6408Z" fill="white"/>
<path id="Vector_2" d="M20.1424 40.1792V15.75C20.1399 15.2108 19.9246 14.6945 19.5434 14.3133C19.1622 13.9321 18.6459 13.7169 18.1068 13.7144C17.5671 13.7149 17.0496 13.9295 16.668 14.3112C16.2864 14.6928 16.0717 15.2102 16.0712 15.75V40.1792C15.5015 40.6064 15.0807 41.202 14.8684 41.8817C14.6561 42.5614 14.663 43.2906 14.8882 43.9661C15.1134 44.6417 15.5454 45.2292 16.123 45.6456C16.7007 46.0619 17.3947 46.286 18.1068 46.286C18.8188 46.286 19.5128 46.0619 20.0905 45.6456C20.6682 45.2292 21.1002 44.6417 21.3253 43.9661C21.5505 43.2906 21.5574 42.5614 21.3451 41.8817C21.1328 41.202 20.712 40.6064 20.1424 40.1792ZM18.1068 15.0714C18.1972 15.0712 18.2868 15.0895 18.3698 15.1252C18.4529 15.1609 18.5278 15.2133 18.5899 15.2791C18.6525 15.3403 18.7021 15.4136 18.7356 15.4946C18.7692 15.5755 18.7861 15.6623 18.7853 15.75V19.1426H17.4282V15.75C17.4284 15.5701 17.5 15.3976 17.6272 15.2704C17.7544 15.1431 17.9269 15.0716 18.1068 15.0714ZM18.1068 44.9269C17.6588 44.9275 17.2231 44.7802 16.8675 44.5079C16.5118 44.2355 16.256 43.8534 16.1398 43.4207C16.0236 42.9881 16.0535 42.5292 16.2249 42.1153C16.3963 41.7014 16.6996 41.3557 17.0876 41.1318C17.1911 41.0723 17.277 40.9866 17.3368 40.8834C17.3966 40.7801 17.4282 40.6629 17.4282 40.5435V20.4997H18.7853V40.5435C18.7853 40.6628 18.8168 40.78 18.8764 40.8832C18.9361 40.9865 19.0219 41.0722 19.1253 41.1318C19.5132 41.3556 19.8165 41.7013 19.9879 42.1151C20.1593 42.5289 20.1892 42.9878 20.0731 43.4204C19.957 43.853 19.7014 44.2352 19.3458 44.5076C18.9902 44.78 18.5547 44.9274 18.1068 44.9269ZM26.2492 29.9991H23.535C23.3551 29.9991 23.1825 30.0706 23.0552 30.1979C22.928 30.3251 22.8565 30.4977 22.8565 30.6777C22.8565 30.8576 22.928 31.0302 23.0552 31.1575C23.1825 31.2847 23.3551 31.3562 23.535 31.3562H26.2492C26.4291 31.3562 26.6017 31.2847 26.729 31.1575C26.8562 31.0302 26.9277 30.8576 26.9277 30.6777C26.9277 30.4977 26.8562 30.3251 26.729 30.1979C26.6017 30.0706 26.4291 29.9991 26.2492 29.9991ZM26.2492 35.4274H23.535C23.3551 35.4274 23.1825 35.4989 23.0552 35.6261C22.928 35.7534 22.8565 35.926 22.8565 36.1059C22.8565 36.2859 22.928 36.4585 23.0552 36.5857C23.1825 36.713 23.3551 36.7845 23.535 36.7845H26.2492C26.4291 36.7845 26.6017 36.713 26.729 36.5857C26.8562 36.4585 26.9277 36.2859 26.9277 36.1059C26.9277 35.926 26.8562 35.7534 26.729 35.6261C26.6017 35.4989 26.4291 35.4274 26.2492 35.4274ZM26.2492 24.5709H23.535C23.3551 24.5709 23.1825 24.6424 23.0552 24.7696C22.928 24.8969 22.8565 25.0695 22.8565 25.2494C22.8565 25.4294 22.928 25.602 23.0552 25.7292C23.1825 25.8565 23.3551 25.9279 23.535 25.9279H26.2492C26.4291 25.9279 26.6017 25.8565 26.729 25.7292C26.8562 25.602 26.9277 25.4294 26.9277 25.2494C26.9277 25.0695 26.8562 24.8969 26.729 24.7696C26.6017 24.6424 26.4291 24.5709 26.2492 24.5709ZM26.2492 19.1426H23.535C23.3551 19.1426 23.1825 19.2141 23.0552 19.3414C22.928 19.4686 22.8565 19.6412 22.8565 19.8211C22.8565 20.0011 22.928 20.1737 23.0552 20.3009C23.1825 20.4282 23.3551 20.4997 23.535 20.4997H26.2492C26.4291 20.4997 26.6017 20.4282 26.729 20.3009C26.8562 20.1737 26.9277 20.0011 26.9277 19.8211C26.9277 19.6412 26.8562 19.4686 26.729 19.3414C26.6017 19.2141 26.4291 19.1426 26.2492 19.1426ZM23.535 28.6421H24.8921C25.0721 28.6421 25.2446 28.5706 25.3719 28.4433C25.4991 28.3161 25.5706 28.1435 25.5706 27.9635C25.5706 27.7836 25.4991 27.611 25.3719 27.4837C25.2446 27.3565 25.0721 27.285 24.8921 27.285H23.535C23.3551 27.285 23.1825 27.3565 23.0552 27.4837C22.928 27.611 22.8565 27.7836 22.8565 27.9635C22.8565 28.1435 22.928 28.3161 23.0552 28.4433C23.1825 28.5706 23.3551 28.6421 23.535 28.6421ZM23.535 34.0703H24.8921C25.0721 34.0703 25.2446 33.9988 25.3719 33.8716C25.4991 33.7443 25.5706 33.5718 25.5706 33.3918C25.5706 33.2118 25.4991 33.0393 25.3719 32.912C25.2446 32.7848 25.0721 32.7133 24.8921 32.7133H23.535C23.3551 32.7133 23.1825 32.7848 23.0552 32.912C22.928 33.0393 22.8565 33.2118 22.8565 33.3918C22.8565 33.5718 22.928 33.7443 23.0552 33.8716C23.1825 33.9988 23.3551 34.0703 23.535 34.0703ZM23.535 23.2138H24.8921C25.0721 23.2138 25.2446 23.1423 25.3719 23.0151C25.4991 22.8878 25.5706 22.7152 25.5706 22.5353C25.5706 22.3553 25.4991 22.1827 25.3719 22.0555C25.2446 21.9282 25.0721 21.8567 24.8921 21.8567H23.535C23.3551 21.8567 23.1825 21.9282 23.0552 22.0555C22.928 22.1827 22.8565 22.3553 22.8565 22.5353C22.8565 22.7152 22.928 22.8878 23.0552 23.0151C23.1825 23.1423 23.3551 23.2138 23.535 23.2138ZM37.7842 16.4285C36.979 16.4285 36.1919 16.6673 35.5224 17.1146C34.8529 17.562 34.3311 18.1978 34.0229 18.9417C33.7148 19.6856 33.6342 20.5042 33.7913 21.2939C33.9483 22.0837 34.3361 22.8091 34.9054 23.3785C35.4748 23.9478 36.2002 24.3356 36.99 24.4927C37.7797 24.6497 38.5983 24.5691 39.3422 24.261C40.0861 23.9528 40.7219 23.431 41.1693 22.7615C41.6166 22.092 41.8554 21.3049 41.8554 20.4997C41.8542 19.4203 41.4248 18.3855 40.6616 17.6223C39.8984 16.8591 38.8636 16.4297 37.7842 16.4285ZM37.7842 23.2138C37.2474 23.2138 36.7227 23.0546 36.2763 22.7564C35.83 22.4582 35.4821 22.0343 35.2767 21.5383C35.0713 21.0424 35.0175 20.4967 35.1222 19.9702C35.227 19.4437 35.4855 18.9601 35.865 18.5805C36.2446 18.2009 36.7282 17.9424 37.2547 17.8377C37.7812 17.733 38.3269 17.7867 38.8229 17.9922C39.3188 18.1976 39.7427 18.5455 40.0409 18.9918C40.3392 19.4381 40.4984 19.9629 40.4984 20.4997C40.4976 21.2193 40.2115 21.9092 39.7026 22.4181C39.1938 22.9269 38.5038 23.2131 37.7842 23.2138Z" fill="white"/>
<path id="Vector_3" d="M46.8107 19.9429L45.9184 19.3206C45.1893 18.8154 44.6538 18.0773 44.3998 17.2274C44.1458 16.3776 44.1884 15.4666 44.5206 14.6442C44.57 14.5209 44.5821 14.3858 44.5554 14.2557C44.5287 14.1256 44.4644 14.0062 44.3705 13.9122C44.2766 13.8183 44.1572 13.754 44.027 13.7274C43.8969 13.7007 43.7618 13.7127 43.6385 13.7621C42.8163 14.0944 41.9055 14.137 41.0559 13.883C40.2063 13.629 39.4683 13.0934 38.9634 12.3643L38.3406 11.4727C38.2746 11.388 38.1903 11.3195 38.0938 11.2723C37.9974 11.2252 37.8915 11.2007 37.7842 11.2007C37.6768 11.2007 37.5709 11.2252 37.4745 11.2723C37.3781 11.3195 37.2937 11.388 37.2278 11.4727L36.6042 12.365C36.0993 13.0941 35.3614 13.6296 34.5117 13.8837C33.6621 14.1377 32.7513 14.0951 31.9291 13.7628C31.8058 13.7134 31.6707 13.7013 31.5406 13.728C31.4105 13.7547 31.2911 13.819 31.1972 13.9129C31.1032 14.0068 31.0389 14.1263 31.0123 14.2564C30.9856 14.3865 30.9977 14.5216 31.047 14.6449C31.3791 15.4672 31.4216 16.378 31.1676 17.2277C30.9136 18.0774 30.3782 18.8155 29.6492 19.3206L28.757 19.9435C28.6674 20.0061 28.5942 20.0893 28.5437 20.1862C28.4932 20.283 28.4668 20.3907 28.4668 20.4999C28.4668 20.6092 28.4932 20.7168 28.5437 20.8137C28.5942 20.9106 28.6674 20.9938 28.757 21.0563L29.6492 21.6785C30.3783 22.1837 30.9138 22.9219 31.1679 23.7717C31.4219 24.6216 31.3793 25.5326 31.047 26.355C30.9978 26.4783 30.9859 26.6133 31.0127 26.7432C31.0395 26.8732 31.1038 26.9925 31.1977 27.0863C31.2915 27.1801 31.4109 27.2443 31.5409 27.271C31.6709 27.2977 31.8059 27.2857 31.9291 27.2364C32.7513 26.9041 33.6621 26.8615 34.5117 27.1155C35.3614 27.3696 36.0993 27.9051 36.6042 28.6342L37.2271 29.5258C37.2897 29.6154 37.373 29.6885 37.4699 29.739C37.5668 29.7895 37.6745 29.8159 37.7838 29.8159C37.8931 29.8159 38.0008 29.7895 38.0977 29.739C38.1946 29.6885 38.2779 29.6154 38.3406 29.5258L38.9634 28.6335C39.4684 27.9045 40.2063 27.3691 41.056 27.115C41.9056 26.861 42.8163 26.9036 43.6385 27.2357C43.7618 27.285 43.8968 27.297 44.0268 27.2703C44.1568 27.2437 44.2761 27.1794 44.37 27.0856C44.4639 26.9918 44.5282 26.8725 44.5549 26.7426C44.5817 26.6126 44.5698 26.4776 44.5206 26.3543C44.1886 25.532 44.146 24.6212 44.4 23.7715C44.6541 22.9218 45.1895 22.1837 45.9184 21.6785L46.8107 21.0557C46.9003 20.9931 46.9734 20.9099 47.0239 20.813C47.0745 20.7161 47.1008 20.6085 47.1008 20.4993C47.1008 20.39 47.0745 20.2824 47.0239 20.1855C46.9734 20.0886 46.9003 20.0054 46.8107 19.9429ZM45.1415 20.5651C44.3366 21.1229 43.7036 21.8944 43.3137 22.7927C42.9238 23.6911 42.7926 24.6804 42.9349 25.6493C41.9659 25.5068 40.9764 25.6379 40.078 26.0279C39.1796 26.418 38.4082 27.0513 37.8507 27.8566L37.7842 27.9516L37.7177 27.8566C37.1602 27.0513 36.3887 26.4179 35.4903 26.0278C34.5919 25.6378 33.6024 25.5067 32.6334 25.6493C32.7755 24.6805 32.6441 23.6912 32.2542 22.793C31.8642 21.8948 31.231 21.1234 30.4262 20.5658L30.3312 20.4993L30.4262 20.4328C31.231 19.8751 31.8642 19.1037 32.2542 18.2055C32.6441 17.3073 32.7755 16.318 32.6334 15.3492C33.6022 15.4906 34.5913 15.359 35.4895 14.9692C36.3876 14.5794 37.1593 13.9468 37.7177 13.1426L37.7842 13.0469L37.8507 13.1419C38.4087 13.9466 39.1802 14.5796 40.0785 14.9696C40.9767 15.3595 41.966 15.491 42.9349 15.3492C42.7928 16.318 42.9242 17.3073 43.3142 18.2055C43.7042 19.1037 44.3373 19.8751 45.1422 20.4328L45.2372 20.4993L45.1415 20.5651Z" fill="white"/>
</g>
</g>
<defs>
<linearGradient id="paint0_linear_110_218" x1="30" y1="0" x2="30" y2="60" gradientUnits="userSpaceOnUse">
<stop stop-color="#00B9DB"/>
<stop offset="1" stop-color="#0062DA"/>
</linearGradient>
</defs>
</svg>
