<svg width="60" height="60" viewBox="0 0 60 60" fill="none" xmlns="http://www.w3.org/2000/svg">
<g id="icon">
<path id="bg" d="M0 30C0 13.4315 13.4315 0 30 0C46.5685 0 60 13.4315 60 30C60 46.5685 46.5685 60 30 60C13.4315 60 0 46.5685 0 30Z" fill="url(#paint0_linear_110_197)"/>
<g id="icon_2">
<path id="Vector" d="M46.3849 16.9846C40.8583 16.9846 33.5869 15.1187 30.995 11.6617C30.6502 11.2416 30.0305 11.181 29.6105 11.5261C29.561 11.5667 29.5155 11.6121 29.4749 11.6617C26.8828 15.1184 19.6115 16.9846 14.0852 16.9846C13.5603 16.9846 13.135 17.4101 13.135 17.9351V30.2918C13.135 40.7438 22.2064 47.0449 29.9742 49.2651C30.1446 49.3146 30.3254 49.3146 30.4958 49.2651C38.2636 47.0449 47.335 40.7438 47.335 30.2918V17.9351C47.335 17.4101 46.9096 16.9846 46.3849 16.9846V16.9846ZM45.4348 30.2917C45.4348 39.5705 37.3079 45.2587 30.235 47.3623C23.162 45.2587 15.0348 39.5706 15.0348 30.2918V18.869C20.5262 18.6833 27.0196 16.9121 30.235 13.6763C33.4508 16.9121 39.9439 18.6833 45.435 18.8688V30.2918L45.4348 30.2917Z" fill="white"/>
<path id="Vector_2" d="M26.4351 26.49V28.391H25.485C24.9602 28.391 24.5349 28.8165 24.5349 29.3416V36.9456C24.5349 37.4706 24.9602 37.8962 25.485 37.8962H34.9849C35.5097 37.8962 35.9352 37.4706 35.9352 36.9456V29.3416C35.9352 28.8165 35.5097 28.391 34.9849 28.391H34.0349V26.49C34.0349 24.3901 32.3337 22.688 30.235 22.688C28.1362 22.688 26.4351 24.3901 26.4351 26.49ZM34.0349 35.9952H26.4351V30.292H34.0348L34.0349 35.9952ZM32.135 26.49V28.391H28.335V26.49C28.335 25.4402 29.1855 24.589 30.235 24.589C31.2842 24.589 32.135 25.4402 32.135 26.49Z" fill="white"/>
</g>
</g>
<defs>
<linearGradient id="paint0_linear_110_197" x1="30" y1="0" x2="30" y2="60" gradientUnits="userSpaceOnUse">
<stop stop-color="#00B9DB"/>
<stop offset="1" stop-color="#0062DA"/>
</linearGradient>
</defs>
</svg>
