<svg width="60" height="60" viewBox="0 0 60 60" fill="none" xmlns="http://www.w3.org/2000/svg">
<g id="icon">
<path id="bg" d="M0 30C0 13.4315 13.4315 0 30 0C46.5685 0 60 13.4315 60 30C60 46.5685 46.5685 60 30 60C13.4315 60 0 46.5685 0 30Z" fill="url(#paint0_linear_110_207)"/>
<g id="Group">
<path id="Vector" d="M28.4383 21.4521C28.4383 21.2289 28.6913 21.1331 28.9522 21.1331C29.2052 21.1331 29.4661 21.2288 29.4661 21.4521V25.1844C29.4661 26.5162 28.628 27.0107 27.5686 27.0107C26.5014 27.0107 25.6712 26.5162 25.6712 25.1844V21.4521C25.6712 21.2289 25.9243 21.1331 26.1851 21.1331C26.4381 21.1331 26.699 21.2288 26.699 21.4521V25.1844C26.699 25.8065 27.0232 26.1016 27.5686 26.1016C28.1142 26.1016 28.4383 25.8065 28.4383 25.1844V21.4521H28.4383ZM30.1619 21.6435C30.154 21.6117 30.146 21.5797 30.146 21.5638C30.146 21.3087 30.5177 21.1332 30.7943 21.1332C30.9683 21.1332 31.1026 21.189 31.1422 21.3406L32.3518 25.6629L33.5535 21.3406C33.5931 21.189 33.7274 21.1332 33.9014 21.1332C34.1781 21.1332 34.5496 21.3166 34.5496 21.5638C34.5496 21.5877 34.5417 21.6117 34.5338 21.6435L33.0159 26.6598C32.9448 26.899 32.6522 27.0107 32.3517 27.0107C32.0513 27.0107 31.7667 26.899 31.6876 26.6598L30.1619 21.6435ZM38.2538 33.0176C38.3583 33.1221 38.4997 33.1806 38.6469 33.1803C38.7941 33.1799 38.9352 33.1208 39.0393 33.0158C39.1433 32.9108 39.202 32.7685 39.2023 32.62C39.2026 32.4715 39.1446 32.3289 39.0409 32.2235L37.8292 31.0012C37.7242 30.8988 37.5835 30.8422 37.4375 30.8434C37.2915 30.8447 37.1518 30.9037 37.0486 31.0079C36.9453 31.112 36.8868 31.2529 36.8855 31.4002C36.8843 31.5475 36.9405 31.6894 37.042 31.7953L38.2538 33.0176ZM22.1706 16.794C22.2751 16.8985 22.4165 16.957 22.5637 16.9567C22.7109 16.9564 22.852 16.8972 22.9561 16.7922C23.0601 16.6872 23.1188 16.5449 23.1191 16.3964C23.1194 16.2479 23.0614 16.1053 22.9577 15.9999L21.746 14.7775C21.6411 14.6752 21.5004 14.6185 21.3544 14.6198C21.2084 14.621 21.0687 14.6801 20.9654 14.7842C20.8622 14.8884 20.8036 15.0293 20.8024 15.1766C20.8012 15.3239 20.8574 15.4658 20.9589 15.5716L22.1706 16.794ZM29.9999 13.8516C30.1475 13.8516 30.2891 13.7924 30.3935 13.6871C30.4979 13.5818 30.5565 13.439 30.5565 13.2901V11.5615C30.5565 11.2513 30.3073 11 29.9999 11C29.6925 11 29.4433 11.2513 29.4433 11.5615V13.2901C29.4433 13.439 29.5019 13.5818 29.6063 13.6871C29.7107 13.7924 29.8523 13.8516 29.9999 13.8516ZM29.4433 34.505V36.2337C29.4433 36.5439 29.6925 36.7952 29.9999 36.7952C30.3073 36.7952 30.5565 36.5439 30.5565 36.2337V34.505C30.5565 34.1948 30.3073 33.9435 29.9999 33.9435C29.6925 33.9435 29.4433 34.1948 29.4433 34.505ZM21.746 33.0176L22.9578 31.7953C23.0614 31.6898 23.1195 31.5473 23.1191 31.3988C23.1188 31.2503 23.0602 31.108 22.9561 31.003C22.852 30.898 22.711 30.8388 22.5637 30.8385C22.4165 30.8382 22.2752 30.8967 22.1706 31.0012L20.9589 32.2235C20.8552 32.3289 20.7972 32.4715 20.7975 32.62C20.7979 32.7685 20.8565 32.9108 20.9606 33.0158C21.0646 33.1208 21.2057 33.1799 21.3529 33.1803C21.5001 33.1806 21.6415 33.1221 21.746 33.0176ZM37.8292 16.794L39.041 15.5716C39.1447 15.4662 39.2027 15.3236 39.2023 15.1751C39.202 15.0266 39.1434 14.8843 39.0393 14.7793C38.9352 14.6743 38.7942 14.6152 38.647 14.6148C38.4997 14.6145 38.3584 14.673 38.2538 14.7775L37.0421 15.9999C36.9384 16.1053 36.8804 16.2479 36.8807 16.3964C36.8811 16.5449 36.9397 16.6872 37.0438 16.7922C37.1479 16.8972 37.2889 16.9564 37.4361 16.9567C37.5833 16.957 37.7247 16.8985 37.8292 16.794ZM17.7706 24.4591H19.4842C19.7916 24.4591 20.0409 24.2077 20.0409 23.8976C20.0409 23.5874 19.7916 23.3361 19.4842 23.3361H17.7706C17.4632 23.3361 17.2139 23.5874 17.2139 23.8976C17.2139 24.2077 17.4631 24.4591 17.7706 24.4591ZM40.5156 24.4591H42.2292C42.5366 24.4591 42.7859 24.2077 42.7859 23.8976C42.7859 23.5874 42.5366 23.3361 42.2292 23.3361H40.5156C40.2082 23.3361 39.959 23.5874 39.959 23.8976C39.959 24.2077 40.2082 24.4591 40.5156 24.4591ZM40.9815 47.0115C41.0673 47.0115 41.1519 46.9916 41.2288 46.9532C41.3057 46.9149 41.3727 46.8591 41.4247 46.7903C41.4767 46.7214 41.5122 46.6414 41.5285 46.5565C41.5447 46.4715 41.5413 46.3839 41.5185 46.3005L41.1497 44.9518C41.1303 44.8807 41.0972 44.8142 41.0522 44.756C41.0073 44.6979 40.9515 44.6492 40.8879 44.6128C40.8243 44.5764 40.7543 44.553 40.6817 44.5439C40.6092 44.5348 40.5356 44.5403 40.4651 44.5599C40.3228 44.5995 40.2019 44.6945 40.129 44.824C40.0562 44.9535 40.0373 45.1069 40.0765 45.2505L40.4453 46.5992C40.4777 46.7176 40.5477 46.822 40.6445 46.8965C40.7414 46.971 40.8598 47.0113 40.9815 47.0115ZM36.6625 47.0115C36.7483 47.0115 36.8329 46.9916 36.9098 46.9532C36.9867 46.9149 37.0537 46.8591 37.1057 46.7903C37.1577 46.7214 37.1932 46.6414 37.2095 46.5565C37.2257 46.4715 37.2223 46.3839 37.1995 46.3005L36.8307 44.9518C36.8113 44.8807 36.7782 44.8142 36.7332 44.756C36.6883 44.6979 36.6325 44.6492 36.5689 44.6128C36.5053 44.5764 36.4353 44.553 36.3627 44.5439C36.2902 44.5348 36.2166 44.5403 36.1461 44.5599C36.0038 44.5995 35.8829 44.6945 35.81 44.824C35.7371 44.9535 35.7183 45.1069 35.7575 45.2505L36.1263 46.5992C36.1587 46.7176 36.2287 46.822 36.3255 46.8965C36.4224 46.971 36.5407 47.0113 36.6625 47.0115ZM32.3435 47.0115C32.4293 47.0115 32.5139 46.9916 32.5908 46.9532C32.6677 46.9149 32.7347 46.8591 32.7867 46.7903C32.8387 46.7214 32.8742 46.6414 32.8905 46.5565C32.9067 46.4715 32.9033 46.3839 32.8805 46.3005L32.5117 44.9518C32.4724 44.8083 32.3782 44.6863 32.2499 44.6128C32.1215 44.5393 31.9694 44.5203 31.8271 44.5599C31.6848 44.5995 31.5639 44.6945 31.491 44.824C31.4181 44.9535 31.3992 45.1069 31.4385 45.2505L31.8073 46.5992C31.8397 46.7176 31.9097 46.822 32.0065 46.8965C32.1034 46.971 32.2217 47.0113 32.3435 47.0115ZM28.0245 47.0115C28.1103 47.0115 28.1949 46.9916 28.2718 46.9532C28.3487 46.9149 28.4157 46.8591 28.4677 46.7903C28.5197 46.7214 28.5552 46.6414 28.5714 46.5565C28.5877 46.4715 28.5843 46.3839 28.5615 46.3005L28.1927 44.9518C28.1732 44.8807 28.1401 44.8142 28.0952 44.756C28.0503 44.6979 27.9944 44.6492 27.9309 44.6128C27.8673 44.5764 27.7972 44.553 27.7247 44.5439C27.6522 44.5349 27.5785 44.5403 27.5081 44.5599C27.3658 44.5995 27.2449 44.6945 27.172 44.824C27.0991 44.9535 27.0802 45.1069 27.1195 45.2505L27.4883 46.5992C27.5207 46.7176 27.5906 46.822 27.6875 46.8965C27.7843 46.971 27.9027 47.0113 28.0245 47.0115ZM23.7054 47.0115C23.7912 47.0115 23.8758 46.9916 23.9527 46.9532C24.0296 46.9149 24.0966 46.8591 24.1486 46.7903C24.2006 46.7214 24.2361 46.6414 24.2524 46.5565C24.2686 46.4715 24.2652 46.3839 24.2424 46.3005L23.8736 44.9518C23.8542 44.8807 23.821 44.8142 23.7761 44.756C23.7312 44.6979 23.6754 44.6492 23.6118 44.6128C23.5482 44.5764 23.4782 44.553 23.4056 44.5439C23.3331 44.5348 23.2595 44.5403 23.189 44.5599C23.0467 44.5995 22.9258 44.6945 22.8529 44.824C22.78 44.9535 22.7611 45.1069 22.8004 45.2505L23.1692 46.5992C23.2016 46.7176 23.2716 46.822 23.3684 46.8965C23.4653 46.971 23.5836 47.0113 23.7054 47.0115ZM19.3865 47.0115C19.4722 47.0115 19.5569 46.9916 19.6338 46.9532C19.7106 46.9149 19.7777 46.8591 19.8297 46.7903C19.8816 46.7214 19.9171 46.6414 19.9334 46.5565C19.9497 46.4715 19.9463 46.3839 19.9234 46.3005L19.5547 44.9518C19.5352 44.8807 19.5021 44.8142 19.4572 44.756C19.4123 44.6979 19.3564 44.6492 19.2929 44.6128C19.2293 44.5764 19.1592 44.553 19.0867 44.5439C19.0141 44.5348 18.9405 44.5403 18.8701 44.5599C18.7277 44.5995 18.6069 44.6945 18.534 44.824C18.4611 44.9535 18.4422 45.1069 18.4815 45.2505L18.8502 46.5992C18.8826 46.7176 18.9526 46.822 19.0495 46.8965C19.1463 46.971 19.2647 47.0114 19.3865 47.0115ZM15.0674 47.0115C15.1532 47.0115 15.2378 46.9916 15.3147 46.9532C15.3915 46.9149 15.4586 46.8591 15.5106 46.7903C15.5626 46.7214 15.5981 46.6414 15.6143 46.5565C15.6306 46.4715 15.6272 46.3839 15.6044 46.3005L15.2356 44.9518C15.1963 44.8083 15.1021 44.6863 14.9737 44.6128C14.8454 44.5393 14.6933 44.5203 14.551 44.5599C14.4087 44.5995 14.2878 44.6945 14.2149 44.824C14.142 44.9535 14.1231 45.1069 14.1624 45.2505L14.5312 46.5992C14.5636 46.7176 14.6335 46.822 14.7304 46.8965C14.8272 46.971 14.9456 47.0113 15.0674 47.0115ZM45.3005 47.0115C45.3863 47.0115 45.4709 46.9916 45.5478 46.9532C45.6247 46.9149 45.6917 46.8591 45.7437 46.7903C45.7957 46.7214 45.8312 46.6414 45.8475 46.5565C45.8638 46.4715 45.8603 46.3839 45.8375 46.3005L45.4687 44.9518C45.4295 44.8083 45.3353 44.6863 45.2069 44.6128C45.0785 44.5393 44.9264 44.5203 44.7841 44.5599C44.6418 44.5995 44.5209 44.6945 44.448 44.824C44.3752 44.9535 44.3563 45.1069 44.3955 45.2505L44.7643 46.5992C44.7967 46.7176 44.8667 46.822 44.9635 46.8965C45.0604 46.971 45.1788 47.0113 45.3005 47.0115Z" fill="white"/>
<path id="Vector_2" d="M47.7703 40.1583H35.9777C37.4738 39.5696 38.8865 38.7548 40.1825 37.7244C42.5727 35.824 44.4042 33.2702 45.4515 30.4129L45.7854 31.3599C45.8364 31.4982 45.9393 31.6106 46.0718 31.673C46.2043 31.7353 46.3559 31.7426 46.4937 31.6931C46.6315 31.6437 46.7444 31.5415 46.8082 31.4088C46.8719 31.276 46.8813 31.1232 46.8343 30.9835L45.9412 28.4507C45.8303 28.1363 45.4733 27.9883 45.1757 28.1328L42.9282 29.2222C42.8624 29.2542 42.8033 29.2989 42.7546 29.3538C42.7058 29.4088 42.6683 29.4729 42.6441 29.5425C42.6199 29.612 42.6095 29.6858 42.6136 29.7594C42.6176 29.833 42.636 29.9051 42.6677 29.9716C42.6993 30.038 42.7436 30.0976 42.7981 30.1468C42.8526 30.1959 42.9161 30.2338 42.9851 30.2582C43.054 30.2826 43.1271 30.2931 43.2001 30.289C43.2731 30.2849 43.3446 30.2664 43.4104 30.2344L44.5236 29.6948C43.57 32.492 41.8142 34.9972 39.4933 36.8425C36.765 39.0118 33.4822 40.1584 29.9999 40.1584C26.5177 40.1584 23.235 39.0118 20.5065 36.8425C18.1856 34.9972 16.4298 32.492 15.4763 29.6948L16.5894 30.2344C16.7221 30.2961 16.8735 30.3027 17.011 30.2528C17.1484 30.2029 17.2609 30.1005 17.3242 29.9676C17.3875 29.8348 17.3965 29.6822 17.3492 29.5428C17.302 29.4033 17.2023 29.2882 17.0716 29.2222L14.8242 28.1328C14.5261 27.9881 14.1694 28.1367 14.0586 28.4507L13.1657 30.9835C13.1412 31.0529 13.1305 31.1266 13.1342 31.2003C13.138 31.2739 13.156 31.3461 13.1874 31.4127C13.2188 31.4793 13.2629 31.539 13.3171 31.5884C13.3714 31.6378 13.4347 31.676 13.5036 31.7007C13.5725 31.7254 13.6455 31.7362 13.7185 31.7324C13.7915 31.7287 13.8631 31.7105 13.9291 31.6788C13.9951 31.6471 14.0543 31.6027 14.1033 31.548C14.1523 31.4932 14.1901 31.4293 14.2146 31.3598L14.5485 30.4128C15.5958 33.2702 17.4273 35.8239 19.8175 37.7243C21.1135 38.7547 22.5262 39.5695 24.0223 40.1582H12.2297C11.5517 40.1583 11 40.7147 11 41.3987V43.1122C11 43.2611 11.0586 43.404 11.163 43.5093C11.2674 43.6146 11.409 43.6737 11.5566 43.6737H48.4434C48.591 43.6737 48.7326 43.6146 48.837 43.5093C48.9414 43.404 49 43.2611 49 43.1122V41.3987C49 40.7147 48.4483 40.1583 47.7703 40.1583ZM12.2297 41.2813H47.7703C47.8011 41.2813 47.8307 41.2937 47.8525 41.3157C47.8743 41.3377 47.8866 41.3676 47.8866 41.3987V42.5507H12.1133V41.3987C12.1133 41.3676 12.1256 41.3377 12.1474 41.3157C12.1692 41.2937 12.1988 41.2813 12.2297 41.2813ZM48.4434 47.8768H11.5566C11.2492 47.8768 11 48.1281 11 48.4383C11 48.7485 11.2492 48.9998 11.5566 48.9998H48.4434C48.7508 48.9998 49 48.7485 49 48.4383C49 48.1281 48.7508 47.8768 48.4434 47.8768Z" fill="white"/>
<path id="Vector_3" d="M37.2838 28.9046C37.3655 28.7816 37.3957 28.631 37.3679 28.4856C37.3401 28.3402 37.2565 28.2118 37.1352 28.1283C37.014 28.0448 36.8649 28.013 36.7206 28.0398C36.5762 28.0667 36.4482 28.1499 36.3644 28.2715C34.9263 30.3964 32.5471 31.665 30.0002 31.665C25.7543 31.665 22.3 28.1805 22.3 23.8976C22.3 23.2846 22.371 22.6746 22.5109 22.0842C22.5452 21.9394 22.5211 21.7867 22.4438 21.6598C22.3666 21.5329 22.2425 21.4421 22.0989 21.4075C21.8002 21.3357 21.4996 21.5215 21.4281 21.8231C21.2675 22.5027 21.1865 23.199 21.1868 23.8976C21.1868 28.7998 25.1405 32.788 30.0002 32.788C32.9152 32.788 35.6381 31.3363 37.2838 28.9046ZM22.6777 20.0047C22.7399 20.0434 22.809 20.0694 22.8812 20.0812C22.9533 20.093 23.0271 20.0904 23.0982 20.0734C23.1694 20.0565 23.2365 20.0256 23.2958 19.9824C23.3551 19.9393 23.4053 19.8848 23.4438 19.8221C24.8593 17.5104 27.3102 16.1303 30.0001 16.1303C34.246 16.1303 37.7002 19.6148 37.7002 23.8976C37.7002 24.6197 37.6022 25.3343 37.4089 26.0218C37.3854 26.1053 37.3815 26.1932 37.3973 26.2786C37.4132 26.364 37.4485 26.4444 37.5004 26.5137C37.5523 26.583 37.6195 26.6392 37.6966 26.6779C37.7737 26.7166 37.8586 26.7367 37.9447 26.7367C38.0658 26.7366 38.1836 26.6966 38.2801 26.6229C38.3767 26.5492 38.4468 26.4458 38.4799 26.3283C38.7017 25.5375 38.814 24.7195 38.8135 23.8976C38.8135 18.9955 34.8598 15.0073 30.0001 15.0073C26.9214 15.0073 24.1164 16.5866 22.4967 19.2319C22.4191 19.3586 22.3946 19.5112 22.4285 19.6561C22.4625 19.801 22.5521 19.9264 22.6777 20.0047Z" fill="white"/>
</g>
</g>
<defs>
<linearGradient id="paint0_linear_110_207" x1="30" y1="0" x2="30" y2="60" gradientUnits="userSpaceOnUse">
<stop stop-color="#00B9DB"/>
<stop offset="1" stop-color="#0062DA"/>
</linearGradient>
</defs>
</svg>
