<svg width="68" height="68" viewBox="0 0 68 68" fill="none" xmlns="http://www.w3.org/2000/svg">
<g id="icon">
<circle id="Ellipse 1" opacity="0.4" cx="34" cy="33.9999" r="34" fill="white"/>
<g id="icon_2">
<path id="Vector" d="M39.6113 30.1863L32.6145 37.184L29.3888 33.9571C29.2439 33.8171 29.0499 33.7397 28.8485 33.7415C28.6471 33.7432 28.4545 33.824 28.3121 33.9664C28.1697 34.1088 28.0889 34.3015 28.0872 34.5029C28.0854 34.7043 28.1629 34.8983 28.3028 35.0432L32.0723 38.814C32.2169 38.9569 32.412 39.037 32.6153 39.037C32.8185 39.037 33.0136 38.9569 33.1583 38.814L40.6973 31.2724C40.8372 31.1275 40.9146 30.9335 40.9128 30.7321C40.9111 30.5307 40.8303 30.338 40.6879 30.1956C40.5455 30.0532 40.3529 29.9724 40.1515 29.9707C39.9501 29.9689 39.7561 30.0463 39.6113 30.1863Z" fill="white"/>
<path id="Vector_2" d="M18.8936 22.8859C19.0973 22.8859 19.2926 22.8049 19.4367 22.6609C19.5807 22.5168 19.6616 22.3215 19.6616 22.1177C19.6614 21.4651 19.92 20.8389 20.3808 20.3767C20.8415 19.9145 21.4667 19.6538 22.1193 19.652H26.6968C27.2211 19.6535 27.7405 19.5509 28.225 19.3504C28.7095 19.1499 29.1494 18.8553 29.5193 18.4837L32.7627 15.256C33.231 14.8085 33.8538 14.5589 34.5015 14.5592C35.1492 14.5595 35.7717 14.8096 36.2396 15.2575C41.301 20.2949 39.7757 19.6436 46.8807 19.6512C47.5333 19.6531 48.1586 19.9137 48.6193 20.3759C49.08 20.8382 49.3386 21.4643 49.3384 22.117V26.7035C49.3371 27.2286 49.4399 27.7488 49.641 28.2339C49.842 28.719 50.1373 29.1593 50.5097 29.5295L53.7493 32.7541C54.2085 33.2187 54.4663 33.8457 54.4665 34.499C54.4668 35.1524 54.2097 35.7795 53.7508 36.2445L50.5082 39.4723C50.1361 39.8423 49.8412 40.2825 49.6404 40.7673C49.4396 41.2521 49.337 41.7719 49.3384 42.2967V46.8748C49.3397 47.5285 49.0816 48.156 48.6209 48.6197C48.1601 49.0834 47.5343 49.3453 46.8807 49.3482H46.1434C45.9397 49.3482 45.7444 49.4291 45.6003 49.5732C45.4563 49.7172 45.3754 49.9126 45.3754 50.1163C45.3754 50.3201 45.4563 50.5154 45.6003 50.6595C45.7444 50.8035 45.9397 50.8845 46.1434 50.8845C46.7242 50.9722 47.3171 50.9346 47.8822 50.7742C48.4473 50.6138 48.9716 50.3343 49.4197 49.9545C49.8679 49.5747 50.2296 49.1034 50.4805 48.5722C50.7314 48.041 50.8658 47.4622 50.8745 46.8748V42.2967C50.8764 41.6461 51.1344 41.0225 51.5926 40.5607L54.8376 37.3292C55.583 36.5751 56.0007 35.5574 56 34.497C55.9993 33.4367 55.5802 32.4195 54.8337 31.6664L51.5942 28.4418C51.135 27.9796 50.8764 27.3551 50.8745 26.7035V22.1177C50.8743 21.0577 50.4537 20.0411 49.705 19.2908C48.9563 18.5406 47.9406 18.118 46.8807 18.1157H42.3033C41.98 18.1164 41.6597 18.0529 41.3611 17.929C41.0625 17.8051 40.7915 17.6231 40.5637 17.3937L37.3249 14.1706C36.5762 13.4214 35.5607 13.0003 34.5017 12.9999C33.4426 12.9994 32.4268 13.4197 31.6775 14.1683L28.4349 17.396C28.2071 17.6249 27.9362 17.8063 27.6379 17.9299C27.3396 18.0534 27.0197 18.1166 26.6968 18.1157H22.1193C21.0595 18.118 20.0438 18.5406 19.2951 19.2908C18.5463 20.0411 18.1258 21.0577 18.1256 22.1177C18.1256 22.3215 18.2065 22.5168 18.3505 22.6609C18.4945 22.8049 18.6899 22.8859 18.8936 22.8859ZM17.4059 40.5584C17.8651 41.0206 18.1236 41.6451 18.1256 42.2967V46.8748C18.1247 47.9358 18.5448 48.9538 19.2935 49.7055C20.0422 50.4572 21.0584 50.8812 22.1193 50.8845H26.6968C27.3479 50.8827 27.9731 51.1391 28.4356 51.5973L31.6767 54.8304C32.4256 55.5792 33.4411 55.9999 34.5 55.9999C35.5589 55.9999 36.5745 55.5792 37.3233 54.8304L40.5621 51.6004C41.0249 51.1407 41.651 50.8832 42.3033 50.8845C42.5069 50.8845 42.7023 50.8035 42.8463 50.6595C42.9904 50.5154 43.0713 50.3201 43.0713 50.1163C42.8608 48.4917 40.1389 49.7599 39.48 50.5096L36.2381 53.7435C35.7764 54.2035 35.1513 54.4618 34.4996 54.4618C33.848 54.4618 33.2229 54.2035 32.7612 53.7435L29.517 50.5065C28.7672 49.7625 27.7531 49.346 26.6968 49.3482H22.1193C21.4657 49.3453 20.8399 49.0834 20.3792 48.6197C19.9184 48.156 19.6604 47.5285 19.6616 46.8748V42.2967C19.663 41.7716 19.5602 41.2514 19.3591 40.7663C19.1581 40.2813 18.8628 39.8409 18.4904 39.4707L15.2539 36.2492C14.7935 35.7846 14.5349 35.1572 14.5342 34.5032C14.5335 33.8492 14.7907 33.2212 15.25 32.7557L18.4919 29.528C18.8639 29.1579 19.1589 28.7177 19.3596 28.2329C19.5604 27.7481 19.6631 27.2283 19.6616 26.7035V25.9584C19.6616 25.7547 19.5807 25.5593 19.4367 25.4153C19.2926 25.2712 19.0973 25.1903 18.8936 25.1903C18.6899 25.1903 18.4945 25.2712 18.3505 25.4153C18.2065 25.5593 18.1256 25.7547 18.1256 25.9584V26.7035C18.1236 27.3541 17.8656 27.9777 17.4074 28.4395L14.1648 31.668C13.4183 32.4219 12.9997 33.4402 13 34.5012C13.0003 35.5622 13.4195 36.5802 14.1663 37.3338L17.4059 40.5584Z" fill="white"/>
<path id="Vector_3" d="M43.1887 26.8956C43.3325 26.7515 43.4132 26.5564 43.4132 26.3529C43.4132 26.1494 43.3325 25.9542 43.1887 25.8102C42.0504 24.6653 40.6964 23.7576 39.2049 23.1396C37.7135 22.5216 36.1143 22.2056 34.5 22.2099C23.6338 22.16 18.1101 35.5371 25.8089 43.1931C35.7949 52.768 51.3437 41.6999 45.5589 29.1416C45.4651 28.9669 45.3075 28.8353 45.1189 28.7742C44.9303 28.7132 44.7254 28.7274 44.5471 28.8139C44.3688 28.9004 44.2308 29.0525 44.162 29.2384C44.0932 29.4243 44.0989 29.6296 44.178 29.8114C49.26 40.772 35.596 50.4958 26.8949 42.107C20.1608 35.4065 24.9902 23.7024 34.5 23.7462C35.9126 23.7423 37.312 24.0186 38.6171 24.5592C39.9223 25.0998 41.1072 25.8939 42.1035 26.8956C42.2475 27.0393 42.4426 27.1201 42.6461 27.1201C42.8496 27.1201 43.0447 27.0393 43.1887 26.8956Z" fill="white"/>
</g>
</g>
</svg>
