<svg width="68" height="68" viewBox="0 0 68 68" fill="none" xmlns="http://www.w3.org/2000/svg">
<g id="icon">
<circle id="Ellipse 2" opacity="0.4" cx="34" cy="34" r="34" fill="white"/>
<g id="Group">
<path id="Vector" d="M35.4228 49.6993C34.1719 49.9948 32.8909 50.144 31.6056 50.144C22.4346 50.144 15 42.7094 15 33.5385C15 24.3675 22.4346 16.9329 31.6056 16.9329C40.7766 16.9329 48.2111 24.3675 48.2111 33.5385C48.2111 35.6938 47.7915 37.8285 46.9758 39.8235M16.4647 20.8696L18.9367 18.3976M18.0097 19.9425L19.5546 21.4875M44.2745 18.3975L46.7464 20.8696M45.2014 19.9425L43.6565 21.4875M27.6727 16.9329V13H35.5385V16.9329M31.605 20.4288H31.6056M25.0502 22.1855L25.0507 22.1851M20.252 26.9842L20.2523 26.9836M18.4959 33.5391V33.5385M20.2526 40.0938L20.2523 40.0933M25.0513 44.892L25.0507 44.8917M31.6062 46.648H31.6056M44.7151 33.5378V33.5385M42.9585 26.9831L42.9588 26.9836M38.1598 22.1849L38.1604 22.1851M31.6056 31.3219V24.3618" stroke="white" stroke-width="1.5" stroke-miterlimit="22.9256" stroke-linecap="round" stroke-linejoin="round"/>
<path id="Vector_2" fill-rule="evenodd" clip-rule="evenodd" d="M46.7964 40.0674C47.674 40.3678 48.4845 40.8364 49.1825 41.4472L51.4158 40.4688L53.4551 44.0008L51.4922 45.4448C51.581 45.8988 51.6257 46.3605 51.6256 46.8231C51.6256 47.2947 51.5795 47.7555 51.4922 48.2015L53.4551 49.6455L51.4158 53.1776L49.1825 52.1992C48.4844 52.8099 47.6739 53.2786 46.7963 53.5789L46.5273 56H42.4488L42.1798 53.579C41.3021 53.2787 40.4916 52.81 39.7935 52.1992L37.5603 53.1777L35.521 49.6456L37.484 48.2015C37.3951 47.7474 37.3504 47.2859 37.3505 46.8232C37.3505 46.3516 37.3966 45.8909 37.4839 45.4449L35.521 44.0009L37.5603 40.4689L39.7935 41.4473C40.4915 40.8365 41.302 40.3679 42.1796 40.0675L42.4486 37.6464H46.5271L46.7964 40.0674Z" stroke="white" stroke-width="1.5" stroke-miterlimit="22.9256" stroke-linecap="round" stroke-linejoin="round"/>
<path id="Vector_3" fill-rule="evenodd" clip-rule="evenodd" d="M44.4882 49.3722C45.8922 49.3722 47.0373 48.2271 47.0373 46.8231C47.0373 45.419 45.8922 44.2739 44.4882 44.2739C43.0842 44.2739 41.9391 45.419 41.9391 46.8231C41.939 48.2271 43.0841 49.3722 44.4882 49.3722ZM31.6056 35.5049C32.6887 35.5049 33.5721 34.6216 33.5721 33.5385C33.5721 32.4554 32.6887 31.572 31.6056 31.572C30.5225 31.572 29.6392 32.4554 29.6392 33.5385C29.6392 34.6216 30.5226 35.5049 31.6056 35.5049Z" stroke="white" stroke-width="1.5" stroke-miterlimit="22.9256" stroke-linecap="round" stroke-linejoin="round"/>
</g>
</g>
</svg>
