<svg width="68" height="68" viewBox="0 0 68 68" fill="none" xmlns="http://www.w3.org/2000/svg">
<g id="icon">
<circle id="Ellipse 2" opacity="0.4" cx="34" cy="33.9999" r="34" fill="white"/>
<g id="icon_2">
<path id="Vector" d="M37.0018 26.2441L30.218 42.4084" stroke="white" stroke-miterlimit="10" stroke-linecap="round" stroke-linejoin="round"/>
<path id="Vector_2" d="M31.9165 28.9739C31.9165 30.8976 30.5745 32.4571 28.9191 32.4571C27.2636 32.4571 25.9216 30.8976 25.9216 28.9739C25.9216 27.0503 27.2636 25.4907 28.9191 25.4907C30.5745 25.4907 31.9165 27.0503 31.9165 28.9739Z" stroke="white" stroke-miterlimit="10" stroke-linecap="round" stroke-linejoin="round"/>
<path id="Vector_3" d="M41.0784 40.0259C41.0784 41.9495 39.7364 43.509 38.081 43.509C36.4255 43.509 35.0835 41.9495 35.0835 40.0259C35.0835 38.1021 36.4255 36.5427 38.081 36.5427C39.7364 36.5427 41.0784 38.1021 41.0784 40.0259Z" stroke="white" stroke-miterlimit="10" stroke-linecap="round" stroke-linejoin="round"/>
<path id="Vector_4" d="M36.4182 14.5934C37.3849 16.0977 39.3367 16.6207 40.9261 15.8012C43.1708 14.6439 45.8604 16.1967 45.9805 18.7194C46.0655 20.5055 47.4943 21.9344 49.2804 22.0195C51.8032 22.1395 53.356 24.8291 52.1986 27.0738V27.0739C51.3792 28.6633 51.9022 30.615 53.4065 31.5817C55.5313 32.947 55.5313 36.0528 53.4065 37.4181C51.9022 38.3847 51.3792 40.3365 52.1986 41.9259V41.9259C53.356 44.1707 51.8032 46.8603 49.2804 46.9804C47.4943 47.0654 46.0655 48.4942 45.9805 50.2803C45.8604 52.803 43.1708 54.3559 40.9261 53.1985C39.3367 52.379 37.3849 52.902 36.4182 54.4063C35.0529 56.5311 31.9472 56.5311 30.5818 54.4063C29.6152 52.902 27.6634 52.379 26.074 53.1985C23.8293 54.3559 21.1397 52.803 21.0196 50.2803C20.9346 48.4942 19.5057 47.0654 17.7196 46.9804C15.1969 46.8603 13.6441 44.1707 14.8014 41.9259V41.9259C15.6209 40.3365 15.0979 38.3847 13.5936 37.4181C11.4688 36.0528 11.4688 32.947 13.5936 31.5817C15.0979 30.615 15.6209 28.6633 14.8014 27.0739V27.0738C13.6441 24.8291 15.1969 22.1395 17.7196 22.0195C19.5057 21.9344 20.9346 20.5055 21.0196 18.7194C21.1397 16.1967 23.8293 14.6439 26.074 15.8012C27.6634 16.6207 29.6152 16.0977 30.5818 14.5934C31.9472 12.4687 35.0529 12.4687 36.4182 14.5934Z" stroke="white" stroke-miterlimit="10" stroke-linecap="round" stroke-linejoin="round"/>
<path id="Vector_5" d="M21.8578 44.1019C19.7036 41.4929 18.4094 38.1475 18.4094 34.5C18.4094 26.1656 25.1657 19.4093 33.5 19.4093C37.1463 19.4093 40.4905 20.7025 43.099 22.8553" stroke="white" stroke-miterlimit="10" stroke-linecap="round" stroke-linejoin="round"/>
<path id="Vector_6" d="M45.2629 25.046C47.3446 27.6329 48.5906 30.9209 48.5906 34.4999C48.5906 42.8342 41.8343 49.5905 33.4999 49.5905C29.9134 49.5905 26.619 48.3393 24.0295 46.2495" stroke="white" stroke-miterlimit="10" stroke-linecap="round" stroke-linejoin="round"/>
</g>
</g>
</svg>
