<svg width="59" height="59" viewBox="0 0 59 59" fill="none" xmlns="http://www.w3.org/2000/svg">
<g id="Group 3475">
<circle id="Ellipse 17" cx="29.5" cy="29.5" r="29.5" fill="url(#paint0_linear_110_266)"/>
<g id="Group">
<path id="Vector" d="M41.0009 30.5006V29.5005C41.2769 29.5005 41.5009 29.2767 41.5009 29.0005V26.0004C41.5009 25.7243 41.2769 25.5004 41.0009 25.5004H38.3008L38.2039 25.1248C37.9829 24.2657 37.6393 23.4429 37.1837 22.6817L36.9837 22.3472L38.9008 20.4268C39.0938 20.2334 39.0938 19.9201 38.9008 19.7267L36.7773 17.6001C36.6829 17.5101 36.5576 17.4599 36.4272 17.4599C36.2968 17.4599 36.1714 17.5101 36.0771 17.6001L34.1565 19.5207L33.8221 19.3207C33.0599 18.865 32.2361 18.5213 31.3759 18.3001L31.0005 18.2025V15.5001C31.0005 15.2239 30.7767 15 30.5005 15H27.5004C27.2243 15 27.0004 15.2239 27.0004 15.5001V18.2001L26.6248 18.2972C25.7657 18.5182 24.9428 18.8615 24.1813 19.3166L23.8468 19.5168L21.9267 17.6001C21.8323 17.5094 21.7064 17.4588 21.5755 17.4588C21.4445 17.4588 21.3186 17.5094 21.2242 17.6001L19.1001 19.7236C19.0539 19.7698 19.0172 19.8246 18.9921 19.8849C18.9671 19.9452 18.9542 20.0099 18.9542 20.0752C18.9542 20.1406 18.9671 20.2052 18.9921 20.2656C19.0172 20.3259 19.0539 20.3807 19.1001 20.4268L21.0207 22.3471L20.8207 22.6817C20.3652 23.4429 20.0217 24.2657 19.8007 25.1248L19.7026 25.5004H17.0001C16.7239 25.5004 16.5 25.7243 16.5 26.0004V29.0005C16.5 29.2767 16.7239 29.5005 17.0001 29.5005V30.5006C16.1717 30.5006 15.5 29.8288 15.5 29.0005V26.0004C15.5 25.1721 16.1717 24.5004 17.0001 24.5004H18.9347C19.1409 23.809 19.4198 23.1415 19.7667 22.5089L18.3917 21.1338C18.1104 20.8532 17.9524 20.4723 17.9524 20.0752C17.9524 19.6781 18.1104 19.2972 18.3917 19.0168L20.5168 16.8917C21.1088 16.3251 22.0422 16.3251 22.6342 16.8917L24.0089 18.2661C24.6415 17.9196 25.3091 17.641 26.0004 17.4351V15.5001C26.0004 14.6717 26.6721 14 27.5004 14H30.5005C31.3288 14 32.0006 14.6717 32.0006 15.5001V17.4351C32.6919 17.6412 33.3594 17.92 33.992 18.2667L35.3671 16.8917C35.9593 16.3251 36.8925 16.3251 37.4848 16.8917L39.6094 19.0162C39.7486 19.1551 39.859 19.3201 39.9343 19.5017C40.0096 19.6833 40.0483 19.878 40.0483 20.0746C40.0483 20.2713 40.0096 20.466 39.9343 20.6476C39.859 20.8293 39.7486 20.9943 39.6094 21.1332L38.2344 22.5083C38.581 23.1412 38.8599 23.8089 39.0663 24.5004H41.0009C41.8292 24.5004 42.5009 25.1721 42.5009 26.0004V29.0005C42.5009 29.8288 41.8292 30.5006 41.0009 30.5006Z" fill="white"/>
<path id="Vector_2" d="M36.0007 27.5002H35.0007C35.0007 24.1865 32.3142 21.5 29.0005 21.5C25.6867 21.5 23.0003 24.1865 23.0003 27.5002H22.0002C22.0002 23.6341 25.1344 20.5 29.0005 20.5C32.8664 20.5 36.0007 23.6341 36.0007 27.5002Z" fill="white"/>
<path id="Vector_3" d="M29.0006 31.5007C27.3437 31.5007 26.0005 30.1573 26.0005 28.5006C26.0005 26.8437 27.3437 25.5005 29.0006 25.5005C30.6577 25.5005 32.0007 26.8437 32.0007 28.5006C31.999 30.1569 30.6569 31.4989 29.0006 31.5007ZM29.0006 26.5005C27.8961 26.5005 27.0006 27.3961 27.0006 28.5006C27.0006 29.6051 27.8961 30.5007 29.0006 30.5007C30.1052 30.5007 31.0007 29.6051 31.0007 28.5006C31.0007 27.3961 30.1052 26.5005 29.0006 26.5005ZM37.5009 33.5008C35.844 33.5008 34.5008 32.1574 34.5008 30.5007C34.5008 28.8438 35.844 27.5006 37.5009 27.5006C39.1578 27.5006 40.501 28.8438 40.501 30.5007C40.4993 32.157 39.1572 33.499 37.5009 33.5008ZM37.5009 28.5006C36.3964 28.5006 35.5009 29.3961 35.5009 30.5007C35.5009 31.6052 36.3964 32.5007 37.5009 32.5007C38.6055 32.5007 39.501 31.6052 39.501 30.5007C39.501 29.3961 38.6055 28.5006 37.5009 28.5006ZM20.5003 33.5008C18.8434 33.5008 17.5002 32.1574 17.5002 30.5007C17.5002 28.8438 18.8434 27.5006 20.5003 27.5006C22.1574 27.5006 23.5005 28.8438 23.5005 30.5007C23.4987 32.157 22.1567 33.499 20.5003 33.5008ZM20.5003 28.5006C19.3958 28.5006 18.5003 29.3961 18.5003 30.5007C18.5003 31.6052 19.3958 32.5007 20.5003 32.5007C21.6049 32.5007 22.5004 31.6052 22.5004 30.5007C22.5004 29.3961 21.6049 28.5006 20.5003 28.5006Z" fill="white"/>
<path id="Vector_4" d="M42.0338 34.7834C41.2886 34.2712 40.4051 33.9981 39.5009 34.0006H35.5007C35.2575 34.0028 35.0148 34.0248 34.7751 34.0664C34.4551 33.566 34.0389 33.1341 33.5507 32.7958C33.4775 32.7405 33.4004 32.6905 33.3202 32.646C32.6207 32.2225 31.8183 31.9992 31.0006 32.0005H27.0004C26.2482 31.9979 25.5075 32.186 24.8477 32.5473C24.1878 32.9085 23.6303 33.4312 23.2273 34.0664C22.9872 34.0248 22.744 34.0028 22.5003 34.0006H18.5002C17.5965 33.9981 16.7135 34.2708 15.9686 34.7825C15.3624 35.195 14.8661 35.7493 14.523 36.3974C14.1799 37.0454 14.0004 37.7675 14 38.5007V40.5008C14.0018 41.8661 14.7961 43.106 16.0362 43.6779C16.494 43.8935 16.9942 44.0039 17.5001 44.0009H22.5003V43.0009H18.0001V37.5007H17.0001V42.9507C16.8119 42.9129 16.629 42.8522 16.4556 42.7698C16.0218 42.5698 15.6543 42.25 15.3964 41.8479C15.1385 41.4459 15.001 40.9785 15 40.5008V38.5007C15.0006 37.9301 15.1406 37.3682 15.4078 36.864C15.675 36.3598 16.0613 35.9284 16.5331 35.6075C17.112 35.2102 17.7981 34.9986 18.5002 35.0006H22.5003C22.5884 35.0006 22.6733 35.01 22.7593 35.0159C22.5901 35.4927 22.5025 35.9947 22.5003 36.5007V41.5008C22.502 42.881 23.6204 43.9992 25.0004 44.0009H26.5004V36.0007H25.5004V43.0009H25.0004C24.172 43.0009 23.5003 42.3292 23.5003 41.5008V36.5007C23.5003 34.5674 25.0676 33.0006 27.0004 33.0006H31.0006C31.6439 33.001 32.2746 33.179 32.8231 33.5151C32.8739 33.5428 32.9226 33.5739 32.969 33.6084C33.4375 33.9292 33.822 34.3579 34.0901 34.8584C34.3596 35.3639 34.5006 35.9279 34.5007 36.5007V41.5008C34.5007 42.3292 33.829 43.0009 33.0007 43.0009H32.5006V36.0007H31.5006V44.0009H33.0007C34.3808 43.9992 35.499 42.881 35.5007 41.5008V36.5007C35.4984 35.9947 35.411 35.4928 35.2421 35.0159C35.3283 35.01 35.4132 35.0006 35.5007 35.0006H39.5009C40.2035 34.9987 40.8901 35.2107 41.4693 35.6084C41.9407 35.9295 42.3266 36.3608 42.5935 36.8648C42.8605 37.3688 43.0003 37.9304 43.001 38.5007V40.5008C43.0001 40.98 42.8617 41.449 42.6022 41.8519C42.3427 42.2548 41.9731 42.5747 41.5371 42.7737C41.3663 42.8545 41.1862 42.914 41.0009 42.9507V37.5007H40.0009V43.0009H35.5007V44.0009H40.5009C41.0038 44.0041 41.501 43.8951 41.9565 43.6818C43.2006 43.1116 43.999 41.8694 44.001 40.5008V38.5007C44.0007 37.7678 43.8212 37.046 43.4784 36.3981C43.1355 35.7503 42.6396 35.196 42.0338 34.7834Z" fill="white"/>
<path id="Vector_5" d="M27.0005 43.001H31.0006V44.001H27.0005V43.001Z" fill="white"/>
</g>
</g>
<defs>
<linearGradient id="paint0_linear_110_266" x1="29.5" y1="0" x2="29.5" y2="59" gradientUnits="userSpaceOnUse">
<stop stop-color="#00B9DB"/>
<stop offset="1" stop-color="#0062DA"/>
</linearGradient>
</defs>
</svg>
