<svg width="59" height="59" viewBox="0 0 59 59" fill="none" xmlns="http://www.w3.org/2000/svg">
<g id="Group 3475">
<circle id="Ellipse 16" cx="29.5" cy="29.5" r="29.5" fill="url(#paint0_linear_110_235)"/>
<g id="Group">
<g id="Group_2">
<path id="Vector" fill-rule="evenodd" clip-rule="evenodd" d="M37.3218 29.0129C37.5832 29.0129 37.7944 29.2288 37.7944 29.4916V31.6223H39.2123V29.4916C39.2123 29.1496 39.5596 28.9193 39.8711 29.0525C40.4068 29.2766 40.8795 29.6294 41.2478 30.0799C41.6161 30.5305 41.8688 31.0651 41.9837 31.6367C42.1306 32.3913 42.0333 33.1734 41.706 33.8684C41.3787 34.5634 40.8386 35.1347 40.1648 35.4987V37.813H39.2159V35.1928C39.2159 35.002 39.3305 34.8293 39.5059 34.7537C39.9182 34.5803 40.2791 34.303 40.5537 33.9486C40.8283 33.5941 41.0073 33.1745 41.0736 32.7302C41.1398 32.286 41.091 31.832 40.9318 31.4122C40.7726 30.9925 40.5084 30.621 40.1648 30.3338V32.0974C40.1648 32.3638 39.9499 32.5761 39.6921 32.5761H37.3218C37.1964 32.5761 37.0762 32.5261 36.9876 32.437C36.8989 32.3479 36.8492 32.227 36.8492 32.101V30.3194C36.5019 30.6056 36.2343 30.9773 36.0724 31.3984C35.9106 31.8195 35.86 32.2755 35.9256 32.7221C35.9912 33.1686 36.1708 33.5905 36.4469 33.9465C36.7229 34.3026 37.086 34.5807 37.5008 34.7537C37.6798 34.8257 37.7908 35.002 37.7908 35.1928V37.3379H36.8456V35.5023C36.2495 35.1866 35.7552 34.7069 35.4205 34.1192C35.0857 33.5315 34.9242 32.8602 34.955 32.1837C34.9858 31.5072 35.2076 30.8535 35.5944 30.299C35.9811 29.7445 36.517 29.3121 37.1392 29.0525C37.1968 29.0271 37.2589 29.0136 37.3218 29.0129ZM36.1151 25.626L35.2415 25.9967C35.3095 26.1587 35.3382 26.3386 35.3167 26.5186L35.2379 27.2312C35.1949 27.6164 35.066 27.8863 34.8082 28.0411L34.5827 28.1742C34.2345 28.381 33.9563 28.6883 33.7842 29.0561L32.5024 31.8167C32.2464 32.3612 31.8413 32.821 31.3346 33.1423C30.8279 33.4636 30.2406 33.633 29.6415 33.6307H29.355C28.7566 33.6323 28.17 33.4626 27.664 33.1413C27.158 32.8201 26.7535 32.3606 26.4978 31.8167L25.2088 29.0561C25.0376 28.6888 24.7607 28.3816 24.4139 28.1742L24.1883 28.0411C23.9305 27.8863 23.8016 27.6164 23.7586 27.2312L23.6799 26.5186C23.6602 26.3402 23.6848 26.1596 23.7515 25.9931L22.8814 25.6296C22.7502 25.9443 22.7009 26.2874 22.7382 26.6266L22.8169 27.3356C22.8363 27.642 22.9268 27.9395 23.0809 28.2045C23.2351 28.4695 23.4488 28.6945 23.7049 28.8617L23.9305 28.9949C24.1167 29.1029 24.2599 29.2684 24.353 29.4628L25.6384 32.2198C26.308 33.6595 27.7581 34.5845 29.3515 34.5845H29.6379C31.2313 34.5845 32.6814 33.6631 33.3545 32.2198L34.6399 29.4628C34.7312 29.268 34.8784 29.105 35.0625 28.9949L35.288 28.8617C35.5441 28.6945 35.7578 28.4695 35.912 28.2045C36.0662 27.9395 36.1566 27.642 36.176 27.3356L36.2548 26.6266C36.2928 26.2862 36.2471 25.9417 36.1151 25.626Z" fill="white"/>
<path id="Vector_2" fill-rule="evenodd" clip-rule="evenodd" d="M26.2148 34.0053C26.0978 34.0066 25.9855 34.0515 25.8995 34.1313C25.8135 34.2111 25.76 34.3201 25.7494 34.4373L25.6813 35.1571C25.6659 35.393 25.5907 35.621 25.4629 35.8194C25.3989 35.9112 25.3165 35.9884 25.2209 36.0461C25.1252 36.1038 25.0186 36.1406 24.9079 36.1541L21.0588 36.8704L20.0348 37.0467C19.4246 37.1368 18.8515 37.3961 18.3797 37.7953C17.9079 38.1945 17.5561 38.718 17.3637 39.307L16.0246 43.3742C16.0007 43.4456 15.9941 43.5217 16.0053 43.5962C16.0164 43.6706 16.0451 43.7414 16.0888 43.8026C16.1325 43.8637 16.1901 43.9136 16.2567 43.948C16.3234 43.9824 16.3972 44.0004 16.4721 44.0005H42.5279C42.6028 44.0004 42.6766 43.9824 42.7433 43.948C42.8099 43.9136 42.8675 43.8637 42.9112 43.8026C42.9549 43.7414 42.9836 43.6706 42.9947 43.5962C43.0059 43.5217 42.9993 43.4456 42.9754 43.3742L41.6506 39.3394C41.4548 38.7407 41.0943 38.2099 40.6108 37.8086C40.1273 37.4073 39.5406 37.1519 38.9187 37.0719L37.8946 36.8919L34.0885 36.2153C33.7841 36.1613 33.6409 35.9921 33.4798 35.6034L33.4691 35.5854C33.4066 35.4489 33.3667 35.303 33.3509 35.1535L33.2793 34.4337C33.2729 34.3715 33.2545 34.3112 33.2249 34.2562C33.1954 34.2013 33.1554 34.1527 33.1072 34.1132C33.059 34.0738 33.0035 34.0443 32.944 34.0264C32.8844 34.0085 32.8219 34.0026 32.7601 34.0089C32.6983 34.0153 32.6383 34.0339 32.5836 34.0636C32.5289 34.0933 32.4806 34.1335 32.4413 34.1819C32.4021 34.2304 32.3727 34.2861 32.3549 34.346C32.3371 34.4059 32.3312 34.4687 32.3376 34.5308L32.4092 35.2471C32.4307 35.5098 32.5059 35.751 32.6026 35.9669C32.8281 36.514 33.2578 37.0359 33.9202 37.1547L37.7263 37.8278L38.7719 38.0077C38.779 38.0079 38.7862 38.0079 38.7933 38.0077C39.2385 38.0654 39.6581 38.2489 40.0036 38.5369C40.349 38.8249 40.6061 39.2055 40.7447 39.6346L41.8655 43.0431H17.1238L18.2553 39.6022C18.3921 39.1799 18.6437 38.8045 18.9815 38.5183C19.3194 38.2321 19.7301 38.0465 20.1673 37.9825H20.1744L21.2235 37.8026L25.0726 37.0827C25.5314 37.0017 25.9416 36.7466 26.2184 36.3701C26.4691 36.0245 26.5801 35.6286 26.6159 35.2435L26.6875 34.5236C26.6946 34.4565 26.6874 34.3887 26.6664 34.3246C26.6455 34.2605 26.6111 34.2016 26.5657 34.1519C26.5203 34.1022 26.4649 34.0627 26.4032 34.0362C26.3414 34.0097 26.2748 33.9967 26.2077 33.9981L26.2148 34.0053Z" fill="white"/>
<path id="Vector_3" fill-rule="evenodd" clip-rule="evenodd" d="M33.3115 35.9736L32.5775 36.3983C30.4041 37.6581 28.2378 37.5501 26.1683 36.114L25.9892 35.9916L25.4521 36.7763L25.6312 36.8986C27.9478 38.5111 30.6082 38.6407 33.0537 37.2226L33.7877 36.7943L33.3115 35.9736Z" fill="white"/>
<path id="Vector_4" fill-rule="evenodd" clip-rule="evenodd" d="M23.5904 36.8589V40.1918H35.442V36.8589H34.4968V39.2416H24.5357V36.8589H23.5904ZM21.2236 37.334V43.5247H22.1689V37.334H21.2236ZM36.8635 37.334V43.5247H37.8088V37.334H36.8635ZM29.5055 14.0036C27.6543 14.0036 25.7996 14.4715 24.131 15.4073L23.8518 15.5621C23.4731 15.7746 23.1542 16.0802 22.925 16.4504C22.6958 16.8205 22.5638 17.243 22.5413 17.6784L22.1617 24.9345C22.155 25.0903 22.1796 25.2459 22.2341 25.3919C22.2885 25.5379 22.3717 25.6713 22.4787 25.7842C22.5857 25.8971 22.7142 25.9872 22.8566 26.049C22.999 26.1108 23.1524 26.1431 23.3075 26.1439C23.683 26.1436 24.0554 26.0753 24.4068 25.9423L25.1014 25.6796C27.9238 24.6129 31.0449 24.6696 33.8272 25.8379L34.3356 26.0539L34.2855 26.0287C34.6156 26.2164 34.9795 26.3363 35.3561 26.3814H35.4098C35.6022 26.3802 35.7924 26.3399 35.969 26.2631C36.1456 26.1863 36.305 26.0746 36.4377 25.9345C36.5703 25.7944 36.6736 25.6289 36.7412 25.4478C36.8088 25.2667 36.8395 25.0738 36.8313 24.8805L36.4661 17.6748C36.4443 17.2397 36.3129 16.8173 36.0843 16.4471C35.8557 16.077 35.5374 15.7712 35.1592 15.5585L34.8799 15.4037C33.2367 14.4831 31.3867 13.9999 29.5055 14V14.0036ZM29.5055 14.9574C31.1991 14.9574 32.8927 15.3857 34.4216 16.2387L34.6973 16.3935C34.9355 16.5272 35.136 16.7196 35.2801 16.9525C35.4241 17.1854 35.5069 17.4513 35.5208 17.7252L35.8896 24.9309C35.9039 25.2045 35.6927 25.4096 35.4241 25.4204C35.1895 25.3888 34.9626 25.3143 34.7546 25.2009L34.7295 25.1865L34.1924 24.9597C31.1877 23.6971 27.8169 23.6354 24.7684 24.787L24.0738 25.0497C23.829 25.1436 23.5695 25.1924 23.3075 25.1937C23.2798 25.1954 23.252 25.1911 23.2262 25.1809C23.2003 25.1707 23.177 25.1549 23.1579 25.1346C23.1387 25.1144 23.1243 25.0901 23.1155 25.0637C23.1067 25.0372 23.1038 25.0091 23.107 24.9813L23.4865 17.7252C23.5008 17.451 23.5842 17.1849 23.7289 16.9519C23.8735 16.7189 24.0748 16.5268 24.3137 16.3935L24.5894 16.2387C26.1183 15.3857 27.8119 14.9574 29.5055 14.9574Z" fill="white"/>
<path id="Vector_5" fill-rule="evenodd" clip-rule="evenodd" d="M29.491 20.1984C27.8794 20.1689 26.2765 20.4424 24.7647 21.0047L24.1345 21.2386C23.8687 21.3381 23.5875 21.3893 23.3038 21.3898H22.6343V22.34H23.3038C23.6977 22.34 24.0916 22.2716 24.4639 22.1312L25.0941 21.8973C27.9204 20.8459 31.0368 20.9024 33.8235 22.0557L34.4752 22.322C34.8762 22.4876 35.3095 22.574 35.7463 22.574H36.3621V21.6238H35.7463C35.4332 21.624 35.123 21.5629 34.8332 21.4438L34.1816 21.1738C32.6921 20.558 31.1013 20.2272 29.491 20.1984Z" fill="white"/>
</g>
<path id="Vector_6" d="M27.604 16.8613C27.4786 16.8613 27.3584 16.9114 27.2698 17.0005C27.1811 17.0896 27.1313 17.2104 27.1313 17.3364V19.0029C27.1313 19.1289 27.1811 19.2497 27.2698 19.3388C27.3584 19.4279 27.4786 19.478 27.604 19.478H31.3922C31.5176 19.478 31.6378 19.4279 31.7264 19.3388C31.8151 19.2497 31.8648 19.1289 31.8648 19.0029V17.34C31.8648 17.214 31.8151 17.0932 31.7264 17.0041C31.6378 16.915 31.5176 16.8649 31.3922 16.8649L27.604 16.8613ZM28.0766 17.8115H30.9196V18.5278H28.0766V17.8115Z" fill="white"/>
</g>
</g>
<defs>
<linearGradient id="paint0_linear_110_235" x1="29.5" y1="0" x2="29.5" y2="59" gradientUnits="userSpaceOnUse">
<stop stop-color="#00B9DB"/>
<stop offset="1" stop-color="#0062DA"/>
</linearGradient>
</defs>
</svg>
