<svg width="59" height="59" viewBox="0 0 59 59" fill="none" xmlns="http://www.w3.org/2000/svg">
<g id="Group 3475">
<circle id="Ellipse 17" cx="29.5" cy="29.5" r="29.5" fill="url(#paint0_linear_110_249)"/>
<g id="Group">
<path id="Vector" d="M30 45C25.9934 45 22.2265 43.4398 19.3934 40.6066C16.5602 37.7735 15 34.0066 15 30C15 25.9934 16.5603 22.2265 19.3934 19.3934C22.2264 16.5602 25.9934 15 30 15C34.0066 15 37.7735 16.5602 40.6066 19.3934C43.4398 22.2265 45 25.9934 45 30C45 34.0066 43.4397 37.7735 40.6066 40.6066C37.7736 43.4398 34.0066 45 30 45ZM30 16.875C22.7629 16.875 16.875 22.7629 16.875 30C16.875 37.2371 22.7629 43.125 30 43.125C37.2371 43.125 43.125 37.2371 43.125 30C43.125 22.7629 37.2371 16.875 30 16.875Z" fill="white"/>
<path id="Vector_2" d="M30 29.0625C28.7077 29.0625 27.6562 28.0111 27.6562 26.7188C27.6562 25.4264 28.7077 24.375 30 24.375C31.2923 24.375 32.3438 25.4264 32.3438 26.7188C32.3438 27.2365 32.7635 27.6562 33.2812 27.6562C33.799 27.6562 34.2188 27.2365 34.2188 26.7188C34.2188 24.7148 32.8138 23.0339 30.9375 22.6063V21.5625C30.9375 21.0448 30.5178 20.625 30 20.625C29.4822 20.625 29.0625 21.0448 29.0625 21.5625V22.6063C27.1862 23.0339 25.7812 24.7148 25.7812 26.7188C25.7812 29.045 27.6738 30.9375 30 30.9375C31.2923 30.9375 32.3438 31.9889 32.3438 33.2812C32.3438 34.5736 31.2923 35.625 30 35.625C28.7077 35.625 27.6562 34.5736 27.6562 33.2812C27.6562 32.7635 27.2365 32.3438 26.7188 32.3438C26.201 32.3438 25.7812 32.7635 25.7812 33.2812C25.7812 35.2852 27.1862 36.9661 29.0625 37.3937V38.4375C29.0625 38.9552 29.4822 39.375 30 39.375C30.5178 39.375 30.9375 38.9552 30.9375 38.4375V37.3937C32.8138 36.9661 34.2188 35.2852 34.2188 33.2812C34.2188 30.955 32.3262 29.0625 30 29.0625Z" fill="white"/>
</g>
</g>
<defs>
<linearGradient id="paint0_linear_110_249" x1="29.5" y1="0" x2="29.5" y2="59" gradientUnits="userSpaceOnUse">
<stop stop-color="#00B9DB"/>
<stop offset="1" stop-color="#0062DA"/>
</linearGradient>
</defs>
</svg>
