<svg width="59" height="59" viewBox="0 0 59 59" fill="none" xmlns="http://www.w3.org/2000/svg">
<g id="Group 3475">
<circle id="Ellipse 17" cx="29.5" cy="29.5" r="29.5" fill="url(#paint0_linear_110_258)"/>
<g id="Group">
<path id="Vector" d="M29.0014 27.4949H28.9985C28.0981 27.4941 27.2329 27.8449 26.5874 28.4725C25.9418 29.1002 25.5667 29.9551 25.5422 30.8552V30.8812C25.5719 32.3026 25.9406 33.5431 26.6083 34.4687C27.2472 35.3542 28.1294 35.8738 29.0287 35.8943C29.0475 35.8947 29.0666 35.895 29.0854 35.895C29.9455 35.895 30.7417 35.4472 31.3336 34.6293C31.9732 33.7451 32.3511 32.4918 32.457 30.9043C32.4581 30.888 32.4583 30.8717 32.4578 30.8554C32.4333 29.9553 32.0583 29.1003 31.4127 28.4726C30.7671 27.8449 29.9018 27.4941 29.0014 27.4949ZM29.0514 34.8943C27.8608 34.8672 26.5984 33.3563 26.5421 30.8737C26.5631 30.2368 26.8305 29.633 27.2879 29.1894C27.7454 28.7458 28.3571 28.4971 28.9943 28.4957C29.6315 28.4942 30.2444 28.7402 30.7038 29.1817C31.1633 29.6233 31.4334 30.2259 31.4572 30.8627C31.2504 33.8738 30.0318 34.9148 29.0514 34.8943H29.0514ZM44.3112 39.4529C44.2486 39.3564 44.1547 39.2844 44.0453 39.249C43.1053 38.9339 42.2075 38.5047 41.3719 37.9712C41.315 37.9356 41.2515 37.9118 41.1852 37.9013C41.1189 37.8908 41.0511 37.8938 40.986 37.91C40.9208 37.9262 40.8596 37.9554 40.806 37.9958C40.7524 38.0362 40.7074 38.087 40.6739 38.1451L39.761 39.7264L38.848 38.1451C38.8145 38.087 38.7695 38.0362 38.7159 37.9958C38.6623 37.9554 38.6011 37.9262 38.5359 37.91C38.4708 37.8938 38.403 37.8908 38.3367 37.9013C38.2704 37.9118 38.2069 37.9356 38.15 37.9712C37.3849 38.4574 36.5689 38.8583 35.7165 39.1667C35.5648 38.714 35.3567 38.2822 35.0973 37.8814C35.0347 37.7849 34.9408 37.7129 34.8314 37.6776C33.628 37.2888 32.3776 36.6912 31.115 35.9017C31.058 35.8661 30.9945 35.8423 30.9282 35.8318C30.8619 35.8213 30.7941 35.8242 30.729 35.8405C30.6638 35.8567 30.6026 35.8859 30.549 35.9263C30.4954 35.9667 30.4505 36.0175 30.4169 36.0757L28.9999 38.53L27.5829 36.0757C27.5493 36.0175 27.5043 35.9667 27.4507 35.9263C27.3971 35.8859 27.3359 35.8567 27.2708 35.8405C27.2056 35.8242 27.1379 35.8213 27.0715 35.8318C27.0052 35.8423 26.9417 35.8661 26.8848 35.9017C25.6223 36.6912 24.3719 37.2887 23.1684 37.6776C23.059 37.7129 22.9651 37.7849 22.9025 37.8814C22.6431 38.2822 22.435 38.714 22.2833 39.1667C21.4309 38.8583 20.6148 38.4574 19.8498 37.9712C19.7929 37.9356 19.7294 37.9118 19.663 37.9013C19.5967 37.8908 19.529 37.8938 19.4638 37.91C19.3987 37.9262 19.3375 37.9554 19.2839 37.9958C19.2302 38.0362 19.1853 38.087 19.1517 38.1451L18.2388 39.7264L17.3259 38.1451C17.2923 38.087 17.2474 38.0362 17.1937 37.9958C17.1401 37.9554 17.0789 37.9262 17.0138 37.91C16.9486 37.8938 16.8809 37.8908 16.8146 37.9013C16.7482 37.9118 16.6847 37.9356 16.6278 37.9712C15.7922 38.5047 14.8944 38.9339 13.9545 39.249C13.845 39.2844 13.7511 39.3564 13.6886 39.4529C13.3598 39.9607 13.1422 40.5323 13.0501 41.1301C12.9579 41.7279 12.9933 42.3385 13.1538 42.9217C13.1723 42.9889 13.2047 43.0514 13.2488 43.1054C13.293 43.1593 13.3479 43.2034 13.4101 43.2348C14.9671 44.024 16.6031 44.4187 18.2391 44.4187C19.8751 44.4187 21.5111 44.024 23.0682 43.2348C23.1083 43.2143 23.1455 43.1884 23.1787 43.158C25.0072 43.9882 26.992 44.4177 29.0002 44.4177C31.0083 44.4177 32.9931 43.9882 34.8216 43.158C34.8548 43.1885 34.892 43.2144 34.9322 43.2348C36.4894 44.0242 38.125 44.4189 39.7613 44.4188C41.3976 44.4187 43.0335 44.024 44.5904 43.2348C44.6525 43.2034 44.7074 43.1593 44.7514 43.1054C44.7955 43.0515 44.8278 42.9889 44.8463 42.9218C45.0068 42.3385 45.0421 41.7279 44.9499 41.1301C44.8577 40.5323 44.6399 39.9607 44.3112 39.4529ZM14.067 42.4442C13.9055 41.6569 14.0379 40.8377 14.4393 40.1414C15.2303 39.8646 15.9923 39.5112 16.7147 39.0863L17.806 40.9763C17.8499 41.0523 17.913 41.1154 17.989 41.1593C18.065 41.2032 18.1513 41.2263 18.239 41.2263C18.3268 41.2263 18.413 41.2032 18.489 41.1593C18.565 41.1154 18.6281 41.0523 18.672 40.9763L19.7632 39.0865C20.4886 39.5128 21.2541 39.867 22.0486 40.1438C21.9314 40.9299 21.9799 41.7319 22.191 42.4982C22.1948 42.5123 22.1996 42.5259 22.2046 42.5395C19.5623 43.7382 16.6973 43.707 14.067 42.4442ZM23.1015 42.0202C22.8357 40.8427 23.0324 39.608 23.6509 38.5713C24.8092 38.1709 25.9225 37.6506 26.9727 37.0189L28.5669 39.78C28.6108 39.856 28.6739 39.9191 28.7499 39.963C28.826 40.0069 28.9122 40.03 28.9999 40.03C29.0877 40.03 29.1739 40.0069 29.2499 39.963C29.3259 39.9191 29.3891 39.856 29.4329 39.78L31.0271 37.0189C32.0773 37.6506 33.1906 38.1709 34.349 38.5713C34.9675 39.608 35.1641 40.8427 34.8983 42.0202C31.0858 43.88 26.914 43.8801 23.1015 42.0202ZM43.9331 42.4442C41.3025 43.7071 38.4377 43.738 35.7955 42.5394C35.8005 42.5259 35.8053 42.5123 35.8092 42.4982C36.0202 41.7319 36.0687 40.9299 35.9515 40.1438C36.7461 39.867 37.5116 39.5128 38.237 39.0865L39.3282 40.9763C39.372 41.0523 39.4352 41.1154 39.5112 41.1593C39.5872 41.2032 39.6734 41.2263 39.7612 41.2263C39.8489 41.2263 39.9352 41.2032 40.0112 41.1593C40.0872 41.1154 40.1503 41.0523 40.1942 40.9763L41.2853 39.0865C42.0076 39.5113 42.7697 39.8646 43.5606 40.1414C43.962 40.8377 44.0944 41.6569 43.933 42.4442H43.9331ZM39.7626 31.8345H39.7597C39.0693 31.8339 38.406 32.103 37.911 32.5842C37.416 33.0655 37.1285 33.721 37.1096 34.4111V34.4371C37.1319 35.499 37.4089 36.428 37.911 37.1238C38.401 37.8028 39.082 38.2015 39.7793 38.2175C39.7931 38.2175 39.8067 38.218 39.8206 38.218C40.9103 38.218 42.2269 37.2381 42.4123 34.46C42.4134 34.4438 42.4136 34.4275 42.4132 34.4112C42.3944 33.721 42.1068 33.0654 41.6117 32.5841C41.1166 32.1028 40.4531 31.8338 39.7626 31.8345ZM39.8017 37.2176C39.0003 37.1993 38.1498 36.1519 38.1094 34.4297C38.1244 34.0026 38.3042 33.5978 38.6112 33.3005C38.9181 33.0031 39.3284 32.8362 39.7558 32.8348C40.1832 32.8334 40.5945 32.9976 40.9034 33.293C41.2123 33.5884 41.3948 33.9919 41.4125 34.419C41.2759 36.3743 40.5064 37.2334 39.8016 37.2176H39.8017ZM18.2403 31.8345H18.2373C17.5469 31.8339 16.8836 32.103 16.3886 32.5842C15.8936 33.0655 15.6061 33.721 15.5872 34.4111V34.4371C15.6095 35.499 15.8866 36.428 16.3886 37.1238C16.8786 37.8028 17.5596 38.2015 18.2569 38.2175C18.2707 38.2175 18.2844 38.218 18.2982 38.218C19.3879 38.218 20.7045 37.2381 20.8899 34.46C20.8911 34.4438 20.8913 34.4275 20.8908 34.4112C20.872 33.721 20.5844 33.0654 20.0893 32.5841C19.5942 32.1028 18.9308 31.8338 18.2403 31.8345ZM18.2988 37.2178H18.2795C17.4779 37.1995 16.6275 36.152 16.5871 34.4299C16.602 34.0028 16.7819 33.598 17.0888 33.3007C17.3958 33.0033 17.806 32.8364 18.2334 32.835C18.6608 32.8336 19.0721 32.9978 19.3811 33.2932C19.69 33.5886 19.8724 33.9921 19.8902 34.4191C19.7549 36.3564 18.9983 37.2178 18.2988 37.2178ZM35.0688 19.4093C35.0409 19.3234 34.9902 19.2467 34.9222 19.1873C34.8542 19.1279 34.7713 19.088 34.6825 19.0718L31.144 18.4301L29.4403 15.2631C29.3975 15.1836 29.3339 15.1171 29.2564 15.0708C29.1789 15.0245 29.0902 15 28.9999 15C28.9096 15 28.821 15.0245 28.7435 15.0708C28.6659 15.1171 28.6024 15.1836 28.5596 15.2631L26.8562 18.4301L23.3173 19.0719C23.2284 19.088 23.1456 19.1279 23.0776 19.1874C23.0096 19.2468 22.959 19.3235 22.9311 19.4094C22.9032 19.4953 22.899 19.5871 22.9191 19.6752C22.9392 19.7632 22.9828 19.8442 23.0452 19.9094L25.5308 22.5085L25.0476 26.0725C25.0354 26.162 25.0478 26.2531 25.0833 26.3361C25.1187 26.4192 25.1761 26.4911 25.2492 26.5442C25.3222 26.5973 25.4083 26.6296 25.4983 26.6376C25.5882 26.6457 25.6787 26.6293 25.7601 26.5901L28.9999 25.0287L32.2399 26.5895C32.3213 26.6287 32.4118 26.6452 32.5017 26.6371C32.5917 26.629 32.6778 26.5967 32.7508 26.5436C32.8239 26.4905 32.8813 26.4186 32.9167 26.3356C32.9522 26.2525 32.9646 26.1614 32.9524 26.0719L32.4692 22.5082L34.9547 19.9092C35.0171 19.8439 35.0606 19.763 35.0807 19.675C35.1008 19.587 35.0967 19.4952 35.0688 19.4093ZM31.5799 21.9911C31.528 22.0454 31.489 22.1107 31.4658 22.1821C31.4426 22.2535 31.4357 22.3292 31.4458 22.4036L31.8365 25.2849L29.2169 24.023C29.1492 23.9904 29.0751 23.9734 28.9999 23.9734C28.9248 23.9734 28.8506 23.9904 28.7829 24.023L26.1634 25.2849L26.5541 22.4036C26.5641 22.3292 26.5573 22.2535 26.5341 22.1821C26.5109 22.1107 26.4719 22.0454 26.42 21.9911L24.4102 19.89L27.2713 19.3712C27.3453 19.3578 27.4152 19.3279 27.476 19.2837C27.5368 19.2396 27.5868 19.1823 27.6224 19.1161L28.9999 16.5554L30.3775 19.1161C30.4131 19.1823 30.4631 19.2395 30.5239 19.2837C30.5847 19.3279 30.6546 19.3578 30.7285 19.3712L33.5896 19.8899L31.5799 21.9911ZM44.1114 26.4212C44.0835 26.3353 44.0328 26.2586 43.9648 26.1992C43.8968 26.1397 43.814 26.0998 43.7251 26.0837L41.3468 25.6524L40.2014 23.524C40.1586 23.4445 40.095 23.378 40.0175 23.3317C39.94 23.2854 39.8514 23.2609 39.761 23.2609C39.6707 23.2609 39.5821 23.2854 39.5046 23.3317C39.427 23.378 39.3635 23.4445 39.3207 23.524L38.1756 25.6528L35.7972 26.084C35.7083 26.1001 35.6255 26.14 35.5575 26.1994C35.4895 26.2589 35.4388 26.3356 35.4109 26.4215C35.383 26.5074 35.3789 26.5992 35.399 26.6873C35.4191 26.7753 35.4626 26.8563 35.525 26.9215L37.1957 28.6684L36.8707 31.0637C36.8585 31.1532 36.8709 31.2443 36.9064 31.3273C36.9419 31.4104 36.9992 31.4823 37.0723 31.5354C37.1453 31.5885 37.2314 31.6208 37.3214 31.6288C37.4114 31.6369 37.5018 31.6205 37.5832 31.5813L39.7609 30.5323L41.9385 31.5813C42.0199 31.6205 42.1104 31.6369 42.2003 31.6288C42.2903 31.6208 42.3764 31.5885 42.4494 31.5354C42.5225 31.4823 42.5798 31.4104 42.6153 31.3273C42.6508 31.2443 42.6632 31.1532 42.651 31.0637L42.326 28.6684L43.9965 26.9215C44.059 26.8563 44.1027 26.7754 44.1229 26.6873C44.143 26.5993 44.139 26.5074 44.1111 26.4215L44.1114 26.4212ZM41.4374 28.1512C41.3855 28.2054 41.3465 28.2707 41.3233 28.3421C41.3001 28.4135 41.2933 28.4893 41.3033 28.5637L41.5356 30.2766L39.9782 29.5266C39.9105 29.494 39.8364 29.477 39.7613 29.477C39.6861 29.477 39.612 29.494 39.5443 29.5266L37.987 30.2766L38.2193 28.5637C38.2293 28.4893 38.2225 28.4135 38.1992 28.3421C38.176 28.2707 38.137 28.2054 38.0851 28.1512L36.8904 26.9018L38.5913 26.5935C38.6652 26.5801 38.7352 26.5502 38.7959 26.506C38.8567 26.4619 38.9068 26.4046 38.9423 26.3384L39.7611 24.8161L40.5799 26.3384C40.6155 26.4046 40.6655 26.4619 40.7263 26.506C40.7871 26.5502 40.8571 26.5801 40.931 26.5935L42.6318 26.9018L41.4374 28.1512ZM22.589 26.4215C22.5611 26.3356 22.5104 26.2588 22.4424 26.1994C22.3744 26.14 22.2915 26.1001 22.2026 26.084L19.8243 25.6527L18.6792 23.524C18.6364 23.4445 18.5728 23.378 18.4953 23.3317C18.4178 23.2854 18.3291 23.2609 18.2388 23.2609C18.1485 23.2609 18.0599 23.2854 17.9824 23.3317C17.9048 23.378 17.8413 23.4445 17.7985 23.524L16.6534 25.6528L14.275 26.084C14.1861 26.1001 14.1033 26.14 14.0353 26.1995C13.9673 26.2589 13.9166 26.3356 13.8887 26.4215C13.8608 26.5074 13.8567 26.5992 13.8768 26.6873C13.8969 26.7753 13.9405 26.8563 14.0029 26.9215L15.6735 28.6684L15.3485 31.0637C15.3363 31.1532 15.3487 31.2443 15.3842 31.3273C15.4197 31.4104 15.477 31.4823 15.5501 31.5354C15.6231 31.5885 15.7092 31.6208 15.7992 31.6288C15.8891 31.6369 15.9796 31.6205 16.061 31.5813L18.2386 30.5323L20.4163 31.5813C20.4977 31.6205 20.5881 31.6369 20.6781 31.6288C20.7681 31.6208 20.8541 31.5885 20.9272 31.5354C21.0003 31.4823 21.0576 31.4104 21.0931 31.3273C21.1286 31.2443 21.1409 31.1532 21.1288 31.0637L20.8038 28.6684L22.4744 26.9215C22.5369 26.8563 22.5805 26.7754 22.6007 26.6873C22.6209 26.5993 22.6168 26.5074 22.589 26.4215ZM19.915 28.1514C19.8631 28.2057 19.8241 28.271 19.8009 28.3424C19.7777 28.4138 19.7708 28.4895 19.7809 28.5639L20.0131 30.2768L18.4558 29.5268C18.3881 29.4942 18.314 29.4773 18.2389 29.4773C18.1637 29.4773 18.0896 29.4942 18.0219 29.5268L16.4646 30.2768L16.6968 28.5639C16.7069 28.4895 16.7 28.4138 16.6768 28.3424C16.6536 28.271 16.6146 28.2057 16.5627 28.1514L15.368 26.9021L17.0688 26.5938C17.1427 26.5803 17.2127 26.5504 17.2735 26.5063C17.3343 26.4621 17.3843 26.4048 17.4199 26.3386L18.2387 24.8164L19.0575 26.3386C19.0931 26.4048 19.1431 26.4621 19.2039 26.5063C19.2647 26.5505 19.3346 26.5804 19.4085 26.5938L21.1094 26.9021L19.915 28.1514Z" fill="white"/>
</g>
</g>
<defs>
<linearGradient id="paint0_linear_110_258" x1="29.5" y1="0" x2="29.5" y2="59" gradientUnits="userSpaceOnUse">
<stop stop-color="#00B9DB"/>
<stop offset="1" stop-color="#0062DA"/>
</linearGradient>
</defs>
</svg>
