<svg width="40" height="40" viewBox="0 0 40 40" fill="none" xmlns="http://www.w3.org/2000/svg">
<g id="Group 147">
<rect id="Rectangle 67" width="40" height="40" rx="20" fill="white" fill-opacity="0.3"/>
<g id="Group">
<path id="Vector" d="M26.9962 28L26.9999 27.999V22.4978C26.9999 19.8062 26.4205 17.7334 23.2743 17.7334C21.7621 17.7334 20.7468 18.5631 20.3324 19.3506H20.2893V17.9846H17.3062V27.999H20.413V23.0406C20.413 21.7346 20.6605 20.4728 22.2777 20.4728C23.8705 20.4728 23.8949 21.9625 23.8949 23.125V28H26.9962Z" fill="white"/>
<g id="Group_2">
<path id="Vector_2" d="M12.2471 17.9854H15.3568V27.9997H12.2471V17.9854Z" fill="white"/>
<path id="Vector_3" d="M13.8009 13C12.8072 13 12 13.8072 12 14.8009C12 15.7956 12.8072 16.6187 13.8009 16.6187C14.7947 16.6187 15.6019 15.7956 15.6019 14.8009C15.6019 13.8072 14.7947 13 13.8009 13Z" fill="white"/>
</g>
</g>
</g>
</svg>
