<svg width="40" height="40" viewBox="0 0 40 40" fill="none" xmlns="http://www.w3.org/2000/svg">
<g id="Group 149">
<rect id="Rectangle 67" width="40" height="40" rx="20" fill="white" fill-opacity="0.3"/>
<path id="Vector" d="M21.2775 11.7942C21.2775 11.5839 21.361 11.3822 21.5097 11.2335C21.6584 11.0848 21.8601 11.0013 22.0704 11.0013C24.1728 11.0036 26.1883 11.8398 27.6749 13.3264C29.1615 14.813 29.9977 16.8286 30 18.931C30 19.1413 29.9165 19.343 29.7677 19.4917C29.619 19.6404 29.4173 19.7239 29.207 19.7239C28.9967 19.7239 28.795 19.6404 28.6463 19.4917C28.4976 19.343 28.4141 19.1413 28.4141 18.931C28.4122 17.2491 27.7432 15.6366 26.554 14.4473C25.3647 13.2581 23.7523 12.5891 22.0704 12.5872C21.8601 12.5872 21.6584 12.5037 21.5097 12.3549C21.361 12.2062 21.2775 12.0045 21.2775 11.7942ZM22.0704 15.7591C22.9116 15.7591 23.7184 16.0933 24.3132 16.6881C24.9081 17.2829 25.2423 18.0897 25.2423 18.931C25.2423 19.1413 25.3258 19.343 25.4745 19.4917C25.6232 19.6404 25.8249 19.7239 26.0352 19.7239C26.2455 19.7239 26.4472 19.6404 26.5959 19.4917C26.7446 19.343 26.8282 19.1413 26.8282 18.931C26.8269 17.6695 26.3252 16.4601 25.4333 15.5681C24.5413 14.6761 23.3319 14.1744 22.0704 14.1731C21.8601 14.1731 21.6584 14.2567 21.5097 14.4054C21.361 14.5541 21.2775 14.7558 21.2775 14.9661C21.2775 15.1764 21.361 15.3781 21.5097 15.5268C21.6584 15.6755 21.8601 15.7591 22.0704 15.7591ZM29.2808 24.2748C29.7403 24.7356 29.9984 25.3598 29.9984 26.0106C29.9984 26.6614 29.7403 27.2856 29.2808 27.7464L28.5592 28.5782C22.0649 34.7959 6.26122 18.996 12.3829 12.4809L13.2948 11.688C13.7561 11.2413 14.3747 10.9942 15.0168 11.0001C15.6589 11.006 16.2729 11.2645 16.7259 11.7197C16.7505 11.7443 18.2198 13.653 18.2198 13.653C18.6558 14.111 18.8985 14.7194 18.8975 15.3518C18.8964 15.9842 18.6518 16.5918 18.2143 17.0484L17.296 18.203C17.8042 19.4378 18.5513 20.5599 19.4945 21.505C20.4377 22.4501 21.5583 23.1995 22.792 23.7102L23.9537 22.7864C24.4104 22.3492 25.0179 22.1048 25.6501 22.1039C26.2822 22.103 26.8905 22.3457 27.3483 22.7816C27.3483 22.7816 29.2562 24.2502 29.2808 24.2748ZM28.1897 25.4278C28.1897 25.4278 26.2921 23.9679 26.2675 23.9433C26.1042 23.7813 25.8835 23.6905 25.6534 23.6905C25.4234 23.6905 25.2026 23.7813 25.0393 23.9433C25.0178 23.9655 23.4185 25.2398 23.4185 25.2398C23.3107 25.3256 23.1824 25.3818 23.0463 25.403C22.9101 25.4241 22.7709 25.4094 22.6421 25.3604C21.0439 24.7653 19.5922 23.8337 18.3854 22.6286C17.1786 21.4236 16.2449 19.9733 15.6475 18.3759C15.5945 18.2454 15.5772 18.1032 15.5974 17.9638C15.6176 17.8244 15.6746 17.693 15.7624 17.5829C15.7624 17.5829 17.0367 15.9827 17.0581 15.9621C17.2201 15.7987 17.311 15.578 17.311 15.3479C17.311 15.1179 17.2201 14.8971 17.0581 14.7338C17.0336 14.71 15.5737 12.8108 15.5737 12.8108C15.4079 12.6621 15.1915 12.5825 14.9689 12.5883C14.7463 12.594 14.5343 12.6847 14.3764 12.8417L13.4645 13.6347C8.99058 19.0142 22.6858 31.9499 27.3999 27.495L28.1223 26.6624C28.2916 26.5056 28.3932 26.2891 28.4058 26.0587C28.4184 25.8283 28.3409 25.6021 28.1897 25.4278Z" fill="white"/>
</g>
</svg>
