<svg width="40" height="40" viewBox="0 0 40 40" fill="none" xmlns="http://www.w3.org/2000/svg">
<g id="Group 148">
<rect id="Rectangle 67" width="40" height="40" rx="20" fill="white" fill-opacity="0.3"/>
<path id="Vector" d="M28.78 17.4069L23.2985 12.1511C22.5557 11.4157 21.5534 11.0022 20.5084 11C19.4633 10.9978 18.4593 11.407 17.7133 12.1392L12.2192 17.4069C11.8349 17.7772 11.529 18.221 11.3195 18.7119C11.1101 19.2028 11.0014 19.7308 11 20.2645V26.0399C11.0013 27.0898 11.4187 28.0963 12.1608 28.8387C12.9028 29.5811 13.9089 29.9987 14.9583 30H26.0417C27.0911 29.9987 28.0972 29.5811 28.8392 28.8387C29.5813 28.0963 29.9987 27.0898 30 26.0399V20.2645C29.9986 19.7307 29.8899 19.2026 29.6803 18.7117C29.4707 18.2208 29.1646 17.777 28.78 17.4069ZM18.8209 13.271C19.2698 12.8259 19.8769 12.5772 20.509 12.5796C21.141 12.582 21.7462 12.8352 22.1918 13.2837L27.5332 18.4033L22.1791 23.7605C21.7265 24.1921 21.1253 24.4329 20.5 24.4329C19.8747 24.4329 19.2735 24.1921 18.8209 23.7605L13.466 18.4033L18.8209 13.271ZM28.4167 26.0399C28.4167 26.6701 28.1664 27.2744 27.721 27.72C27.2756 28.1656 26.6716 28.416 26.0417 28.416H14.9583C14.3284 28.416 13.7244 28.1656 13.279 27.72C12.8336 27.2744 12.5833 26.6701 12.5833 26.0399V20.2645C12.5841 20.1108 12.5998 19.9575 12.63 19.8067L17.7015 24.8804C18.4462 25.6182 19.4519 26.0321 20.5 26.0321C21.5481 26.0321 22.5538 25.6182 23.2985 24.8804L28.37 19.8067C28.4002 19.9575 28.4159 20.1108 28.4167 20.2645V26.0399Z" fill="white"/>
</g>
</svg>
