<svg width="40" height="40" viewBox="0 0 40 40" fill="none" xmlns="http://www.w3.org/2000/svg">
<g id="Group 147">
<rect id="Rectangle 67" width="40" height="40" rx="20" fill="white" fill-opacity="0.3"/>
<path id="Vector" d="M25.6818 11H17.0455C16.2062 11.001 15.3855 11.2262 14.6836 11.648C13.9817 12.0698 13.4292 12.6699 13.0935 13.375H11.8636C11.6346 13.375 11.4149 13.4584 11.253 13.6069C11.091 13.7553 11 13.9567 11 14.1667C11 14.3766 11.091 14.578 11.253 14.7265C11.4149 14.8749 11.6346 14.9583 11.8636 14.9583H12.7273V16.5417H11.8636C11.6346 16.5417 11.4149 16.6251 11.253 16.7735C11.091 16.922 11 17.1234 11 17.3333C11 17.5433 11.091 17.7447 11.253 17.8931C11.4149 18.0416 11.6346 18.125 11.8636 18.125H12.7273V19.7083H11.8636C11.6346 19.7083 11.4149 19.7917 11.253 19.9402C11.091 20.0887 11 20.29 11 20.5C11 20.71 11.091 20.9113 11.253 21.0598C11.4149 21.2083 11.6346 21.2917 11.8636 21.2917H12.7273V22.875H11.8636C11.6346 22.875 11.4149 22.9584 11.253 23.1069C11.091 23.2553 11 23.4567 11 23.6667C11 23.8766 11.091 24.078 11.253 24.2265C11.4149 24.3749 11.6346 24.4583 11.8636 24.4583H12.7273V26.0417H11.8636C11.6346 26.0417 11.4149 26.1251 11.253 26.2735C11.091 26.422 11 26.6234 11 26.8333C11 27.0433 11.091 27.2447 11.253 27.3931C11.4149 27.5416 11.6346 27.625 11.8636 27.625H13.0935C13.4292 28.3301 13.9817 28.9302 14.6836 29.352C15.3855 29.7738 16.2062 29.999 17.0455 30H25.6818C26.8267 29.9987 27.9242 29.5813 28.7337 28.8392C29.5432 28.0972 29.9986 27.0911 30 26.0417V14.9583C29.9986 13.9089 29.5432 12.9028 28.7337 12.1608C27.9242 11.4187 26.8267 11.0013 25.6818 11V11ZM28.2727 26.0417C28.2727 26.6716 27.9998 27.2756 27.5139 27.721C27.028 28.1664 26.369 28.4167 25.6818 28.4167H17.0455C16.3583 28.4167 15.6993 28.1664 15.2134 27.721C14.7275 27.2756 14.4545 26.6716 14.4545 26.0417V14.9583C14.4545 14.3284 14.7275 13.7244 15.2134 13.279C15.6993 12.8336 16.3583 12.5833 17.0455 12.5833H25.6818C26.369 12.5833 27.028 12.8336 27.5139 13.279C27.9998 13.7244 28.2727 14.3284 28.2727 14.9583V26.0417ZM21.3636 20.5C22.0508 20.5 22.7098 20.2498 23.1957 19.8044C23.6816 19.359 23.9545 18.7549 23.9545 18.125C23.9545 17.4951 23.6816 16.891 23.1957 16.4456C22.7098 16.0002 22.0508 15.75 21.3636 15.75C20.6765 15.75 20.0175 16.0002 19.5316 16.4456C19.0457 16.891 18.7727 17.4951 18.7727 18.125C18.7727 18.7549 19.0457 19.359 19.5316 19.8044C20.0175 20.2498 20.6765 20.5 21.3636 20.5ZM25.6818 25.25C25.6818 25.46 25.5908 25.6613 25.4289 25.8098C25.2669 25.9583 25.0472 26.0417 24.8182 26.0417C24.5891 26.0417 24.3695 25.9583 24.2075 25.8098C24.0455 25.6613 23.9545 25.46 23.9545 25.25C23.9545 24.6201 23.6816 24.016 23.1957 23.5706C22.7098 23.1252 22.0508 22.875 21.3636 22.875C20.6765 22.875 20.0175 23.1252 19.5316 23.5706C19.0457 24.016 18.7727 24.6201 18.7727 25.25C18.7727 25.46 18.6817 25.6613 18.5198 25.8098C18.3578 25.9583 18.1381 26.0417 17.9091 26.0417C17.68 26.0417 17.4604 25.9583 17.2984 25.8098C17.1364 25.6613 17.0455 25.46 17.0455 25.25C17.2277 20.0187 25.5013 20.0203 25.6818 25.25Z" fill="white"/>
</g>
</svg>
