<svg width="94" height="165" viewBox="0 0 94 165" fill="none" xmlns="http://www.w3.org/2000/svg">
<g id="Vector" opacity="0.4">
<path d="M11.8821 77.993C14.4438 80.5457 14.451 84.6916 11.8984 87.2532C9.34573 89.8148 5.19981 89.8221 2.6382 87.2694C0.0765941 84.7168 0.069326 80.5709 2.62197 78.0093C5.17461 75.4476 9.32053 75.4404 11.8821 77.993Z" fill="url(#paint0_linear_110_12)"/>
<path d="M26.9563 93.0144C29.5179 95.5671 29.5252 99.713 26.9725 102.275C24.4199 104.836 20.274 104.843 17.7124 102.291C15.1508 99.7382 15.1435 95.5923 17.6961 93.0307C20.2488 90.469 24.3947 90.4618 26.9563 93.0144Z" fill="url(#paint1_linear_110_12)"/>
<path d="M42.0305 108.036C44.5921 110.588 44.5993 114.734 42.0467 117.296C39.4941 119.858 35.3481 119.865 32.7865 117.312C30.2249 114.76 30.2176 110.614 32.7703 108.052C35.3229 105.49 39.4689 105.483 42.0305 108.036Z" fill="url(#paint2_linear_110_12)"/>
<path d="M57.1046 123.057C59.6662 125.61 59.6735 129.756 57.1209 132.317C54.5682 134.879 50.4223 134.886 47.8607 132.334C45.2991 129.781 45.2918 125.635 47.8444 123.073C50.3971 120.512 54.543 120.505 57.1046 123.057Z" fill="url(#paint3_linear_110_12)"/>
<path d="M72.1788 138.079C74.7404 140.631 74.7477 144.777 72.195 147.339C69.6424 149.9 65.4965 149.908 62.9348 147.355C60.3732 144.802 60.366 140.656 62.9186 138.095C65.4713 135.533 69.6172 135.526 72.1788 138.079Z" fill="url(#paint4_linear_110_12)"/>
<path d="M87.2529 153.1C89.8145 155.653 89.8218 159.799 87.2692 162.36C84.7165 164.922 80.5706 164.929 78.009 162.376C75.4474 159.824 75.4401 155.678 77.9928 153.116C80.5454 150.555 84.6913 150.547 87.2529 153.1Z" fill="url(#paint5_linear_110_12)"/>
<path d="M26.9035 62.9189C29.4651 65.4715 29.4724 69.6174 26.9198 72.179C24.3671 74.7406 20.2212 74.7479 17.6596 72.1953C15.098 69.6426 15.0907 65.4967 17.6434 62.9351C20.196 60.3735 24.3419 60.3662 26.9035 62.9189Z" fill="url(#paint6_linear_110_12)"/>
<path d="M41.9777 77.9403C44.5393 80.4929 44.5466 84.6388 41.9939 87.2004C39.4413 89.762 35.2954 89.7693 32.7338 87.2167C30.1722 84.664 30.1649 80.5181 32.7175 77.9565C35.2702 75.3949 39.4161 75.3876 41.9777 77.9403Z" fill="url(#paint7_linear_110_12)"/>
<path d="M57.0519 92.9617C59.6135 95.5143 59.6207 99.6602 57.0681 102.222C54.5155 104.783 50.3695 104.791 47.8079 102.238C45.2463 99.6854 45.239 95.5395 47.7917 92.9779C50.3443 90.4163 54.4902 90.409 57.0519 92.9617Z" fill="url(#paint8_linear_110_12)"/>
<path d="M72.126 107.983C74.6876 110.536 74.6949 114.682 72.1423 117.243C69.5896 119.805 65.4437 119.812 62.8821 117.259C60.3205 114.707 60.3132 110.561 62.8658 107.999C65.4185 105.438 69.5644 105.43 72.126 107.983Z" fill="url(#paint9_linear_110_12)"/>
<path d="M87.2002 123.004C89.7618 125.557 89.7691 129.703 87.2164 132.265C84.6638 134.826 80.5179 134.834 77.9562 132.281C75.3946 129.728 75.3874 125.582 77.94 123.021C80.4927 120.459 84.6386 120.452 87.2002 123.004Z" fill="url(#paint10_linear_110_12)"/>
<path d="M102.274 138.026C104.836 140.579 104.843 144.724 102.291 147.286C99.7379 149.848 95.592 149.855 93.0304 147.302C90.4688 144.75 90.4615 140.604 93.0142 138.042C95.5668 135.48 99.7127 135.473 102.274 138.026Z" fill="url(#paint11_linear_110_12)"/>
<path d="M41.9249 47.8447C44.4866 50.3973 44.4938 54.5433 41.9412 57.1049C39.3885 59.6665 35.2426 59.6738 32.681 57.1211C30.1194 54.5685 30.1121 50.4225 32.6648 47.8609C35.2174 45.2993 39.3633 45.2921 41.9249 47.8447Z" fill="url(#paint12_linear_110_12)"/>
<path d="M56.9991 62.8661C59.5607 65.4187 59.568 69.5647 57.0153 72.1263C54.4627 74.6879 50.3168 74.6952 47.7552 72.1425C45.1936 69.5899 45.1863 65.4439 47.7389 62.8823C50.2916 60.3207 54.4375 60.3135 56.9991 62.8661Z" fill="url(#paint13_linear_110_12)"/>
<path d="M72.0733 77.8875C74.6349 80.4401 74.6421 84.5861 72.0895 87.1477C69.5369 89.7093 65.3909 89.7166 62.8293 87.1639C60.2677 84.6113 60.2604 80.4654 62.8131 77.9037C65.3657 75.3421 69.5117 75.3349 72.0733 77.8875Z" fill="url(#paint14_linear_110_12)"/>
<path d="M87.1474 92.9089C89.709 95.4616 89.7163 99.6075 87.1637 102.169C84.611 104.731 80.4651 104.738 77.9035 102.185C75.3419 99.6327 75.3346 95.4867 77.8872 92.9251C80.4399 90.3635 84.5858 90.3563 87.1474 92.9089Z" fill="url(#paint15_linear_110_12)"/>
<path d="M102.222 107.93C104.783 110.483 104.79 114.629 102.238 117.19C99.6852 119.752 95.5393 119.759 92.9776 117.207C90.416 114.654 90.4088 110.508 92.9614 107.947C95.5141 105.385 99.66 105.378 102.222 107.93Z" fill="url(#paint16_linear_110_12)"/>
<path d="M117.296 122.952C119.857 125.504 119.865 129.65 117.312 132.212C114.759 134.773 110.613 134.781 108.052 132.228C105.49 129.675 105.483 125.53 108.036 122.968C110.588 120.406 114.734 120.399 117.296 122.952Z" fill="url(#paint17_linear_110_12)"/>
<path d="M56.9463 32.7705C59.508 35.3232 59.5152 39.4691 56.9626 42.0307C54.4099 44.5923 50.264 44.5996 47.7024 42.047C45.1408 39.4943 45.1335 35.3484 47.6862 32.7868C50.2388 30.2252 54.3847 30.2179 56.9463 32.7705Z" fill="url(#paint18_linear_110_12)"/>
<path d="M72.0205 47.7919C74.5821 50.3446 74.5894 54.4905 72.0367 57.0521C69.4841 59.6137 65.3382 59.621 62.7766 57.0684C60.215 54.5157 60.2077 50.3698 62.7603 47.8082C65.313 45.2466 69.4589 45.2393 72.0205 47.7919Z" fill="url(#paint19_linear_110_12)"/>
<path d="M87.0947 62.8133C89.6563 65.366 89.6635 69.5119 87.1109 72.0735C84.5583 74.6351 80.4123 74.6424 77.8507 72.0898C75.2891 69.5371 75.2818 65.3912 77.8345 62.8296C80.3871 60.268 84.5331 60.2607 87.0947 62.8133Z" fill="url(#paint20_linear_110_12)"/>
<path d="M102.169 77.8347C104.73 80.3874 104.738 84.5333 102.185 87.0949C99.6324 89.6565 95.4865 89.6638 92.9249 87.1112C90.3633 84.5585 90.356 80.4126 92.9086 77.851C95.4613 75.2894 99.6072 75.2821 102.169 77.8347Z" fill="url(#paint21_linear_110_12)"/>
<path d="M117.243 92.8561C119.805 95.4088 119.812 99.5547 117.259 102.116C114.707 104.678 110.561 104.685 107.999 102.133C105.437 99.5799 105.43 95.434 107.983 92.8724C110.535 90.3108 114.681 90.3035 117.243 92.8561Z" fill="url(#paint22_linear_110_12)"/>
<path d="M132.317 107.878C134.879 110.43 134.886 114.576 132.333 117.138C129.781 119.699 125.635 119.707 123.073 117.154C120.512 114.601 120.504 110.455 123.057 107.894C125.61 105.332 129.756 105.325 132.317 107.878Z" fill="url(#paint23_linear_110_12)"/>
<path d="M71.9677 17.6964C74.5294 20.249 74.5366 24.3949 71.984 26.9566C69.4313 29.5182 65.2854 29.5254 62.7238 26.9728C60.1622 24.4201 60.1549 20.2742 62.7076 17.7126C65.2602 15.151 69.4061 15.1437 71.9677 17.6964Z" fill="url(#paint24_linear_110_12)"/>
<path d="M87.0419 32.7178C89.6035 35.2704 89.6108 39.4163 87.0581 41.978C84.5055 44.5396 80.3596 44.5468 77.798 41.9942C75.2364 39.4415 75.2291 35.2956 77.7817 32.734C80.3344 30.1724 84.4803 30.1651 87.0419 32.7178Z" fill="url(#paint25_linear_110_12)"/>
<path d="M102.116 47.7392C104.678 50.2918 104.685 54.4378 102.132 56.9994C99.5797 59.561 95.4337 59.5682 92.8721 57.0156C90.3105 54.4629 90.3032 50.317 92.8559 47.7554C95.4085 45.1938 99.5545 45.1865 102.116 47.7392Z" fill="url(#paint26_linear_110_12)"/>
<path d="M117.19 62.7606C119.752 65.3132 119.759 69.4591 117.206 72.0208C114.654 74.5824 110.508 74.5896 107.946 72.037C105.385 69.4843 105.377 65.3384 107.93 62.7768C110.483 60.2152 114.629 60.2079 117.19 62.7606Z" fill="url(#paint27_linear_110_12)"/>
<path d="M132.264 77.782C134.826 80.3346 134.833 84.4805 132.281 87.0422C129.728 89.6038 125.582 89.611 123.02 87.0584C120.459 84.5057 120.452 80.3598 123.004 77.7982C125.557 75.2366 129.703 75.2293 132.264 77.782Z" fill="url(#paint28_linear_110_12)"/>
<path d="M147.339 92.8034C149.9 95.356 149.907 99.5019 147.355 102.064C144.802 104.625 140.656 104.632 138.095 102.08C135.533 99.5271 135.526 95.3812 138.078 92.8196C140.631 90.258 144.777 90.2507 147.339 92.8034Z" fill="url(#paint29_linear_110_12)"/>
<path d="M86.9891 2.62223C89.5507 5.17487 89.558 9.32079 87.0054 11.8824C84.4527 14.444 80.3068 14.4513 77.7452 11.8986C75.1836 9.34599 75.1763 5.20007 77.729 2.63846C80.2816 0.0768515 84.4275 0.0695855 86.9891 2.62223Z" fill="url(#paint30_linear_110_12)"/>
<path d="M102.063 17.6436C104.625 20.1963 104.632 24.3422 102.08 26.9038C99.5269 29.4654 95.381 29.4727 92.8194 26.92C90.2578 24.3674 90.2505 20.2215 92.8031 17.6599C95.3558 15.0983 99.5017 15.091 102.063 17.6436Z" fill="url(#paint31_linear_110_12)"/>
<path d="M117.137 32.665C119.699 35.2177 119.706 39.3636 117.154 41.9252C114.601 44.4868 110.455 44.4941 107.894 41.9414C105.332 39.3888 105.325 35.2429 107.877 32.6813C110.43 30.1197 114.576 30.1124 117.137 32.665Z" fill="url(#paint32_linear_110_12)"/>
<path d="M132.212 47.6864C134.773 50.2391 134.78 54.385 132.228 56.9466C129.675 59.5082 125.529 59.5155 122.968 56.9628C120.406 54.4102 120.399 50.2643 122.951 47.7027C125.504 45.1411 129.65 45.1338 132.212 47.6864Z" fill="url(#paint33_linear_110_12)"/>
<path d="M147.286 62.7078C149.847 65.2605 149.855 69.4064 147.302 71.968C144.749 74.5296 140.603 74.5369 138.042 71.9842C135.48 69.4316 135.473 65.2857 138.026 62.7241C140.578 60.1625 144.724 60.1552 147.286 62.7078Z" fill="url(#paint34_linear_110_12)"/>
<path d="M162.36 77.7292C164.922 80.2819 164.929 84.4278 162.376 86.9894C159.824 89.551 155.678 89.5583 153.116 87.0056C150.554 84.453 150.547 80.3071 153.1 77.7455C155.652 75.1839 159.798 75.1766 162.36 77.7292Z" fill="url(#paint35_linear_110_12)"/>
</g>
<defs>
<linearGradient id="paint0_linear_110_12" x1="93.3667" y1="8.97743" x2="99.4282" y2="165.233" gradientUnits="userSpaceOnUse">
<stop stop-color="#00B9DB"/>
<stop offset="1" stop-color="#00387C"/>
</linearGradient>
<linearGradient id="paint1_linear_110_12" x1="93.3667" y1="8.97743" x2="99.4282" y2="165.233" gradientUnits="userSpaceOnUse">
<stop stop-color="#00B9DB"/>
<stop offset="1" stop-color="#00387C"/>
</linearGradient>
<linearGradient id="paint2_linear_110_12" x1="93.3667" y1="8.97743" x2="99.4282" y2="165.233" gradientUnits="userSpaceOnUse">
<stop stop-color="#00B9DB"/>
<stop offset="1" stop-color="#00387C"/>
</linearGradient>
<linearGradient id="paint3_linear_110_12" x1="93.3667" y1="8.97743" x2="99.4282" y2="165.233" gradientUnits="userSpaceOnUse">
<stop stop-color="#00B9DB"/>
<stop offset="1" stop-color="#00387C"/>
</linearGradient>
<linearGradient id="paint4_linear_110_12" x1="93.3667" y1="8.97743" x2="99.4282" y2="165.233" gradientUnits="userSpaceOnUse">
<stop stop-color="#00B9DB"/>
<stop offset="1" stop-color="#00387C"/>
</linearGradient>
<linearGradient id="paint5_linear_110_12" x1="93.3667" y1="8.97743" x2="99.4282" y2="165.233" gradientUnits="userSpaceOnUse">
<stop stop-color="#00B9DB"/>
<stop offset="1" stop-color="#00387C"/>
</linearGradient>
<linearGradient id="paint6_linear_110_12" x1="93.3667" y1="8.97743" x2="99.4282" y2="165.233" gradientUnits="userSpaceOnUse">
<stop stop-color="#00B9DB"/>
<stop offset="1" stop-color="#00387C"/>
</linearGradient>
<linearGradient id="paint7_linear_110_12" x1="93.3667" y1="8.97743" x2="99.4282" y2="165.233" gradientUnits="userSpaceOnUse">
<stop stop-color="#00B9DB"/>
<stop offset="1" stop-color="#00387C"/>
</linearGradient>
<linearGradient id="paint8_linear_110_12" x1="93.3667" y1="8.97743" x2="99.4282" y2="165.233" gradientUnits="userSpaceOnUse">
<stop stop-color="#00B9DB"/>
<stop offset="1" stop-color="#00387C"/>
</linearGradient>
<linearGradient id="paint9_linear_110_12" x1="93.3667" y1="8.97743" x2="99.4282" y2="165.233" gradientUnits="userSpaceOnUse">
<stop stop-color="#00B9DB"/>
<stop offset="1" stop-color="#00387C"/>
</linearGradient>
<linearGradient id="paint10_linear_110_12" x1="93.3667" y1="8.97743" x2="99.4282" y2="165.233" gradientUnits="userSpaceOnUse">
<stop stop-color="#00B9DB"/>
<stop offset="1" stop-color="#00387C"/>
</linearGradient>
<linearGradient id="paint11_linear_110_12" x1="93.3667" y1="8.97743" x2="99.4282" y2="165.233" gradientUnits="userSpaceOnUse">
<stop stop-color="#00B9DB"/>
<stop offset="1" stop-color="#00387C"/>
</linearGradient>
<linearGradient id="paint12_linear_110_12" x1="93.3667" y1="8.97743" x2="99.4282" y2="165.233" gradientUnits="userSpaceOnUse">
<stop stop-color="#00B9DB"/>
<stop offset="1" stop-color="#00387C"/>
</linearGradient>
<linearGradient id="paint13_linear_110_12" x1="93.3667" y1="8.97743" x2="99.4282" y2="165.233" gradientUnits="userSpaceOnUse">
<stop stop-color="#00B9DB"/>
<stop offset="1" stop-color="#00387C"/>
</linearGradient>
<linearGradient id="paint14_linear_110_12" x1="93.3667" y1="8.97743" x2="99.4282" y2="165.233" gradientUnits="userSpaceOnUse">
<stop stop-color="#00B9DB"/>
<stop offset="1" stop-color="#00387C"/>
</linearGradient>
<linearGradient id="paint15_linear_110_12" x1="93.3667" y1="8.97743" x2="99.4282" y2="165.233" gradientUnits="userSpaceOnUse">
<stop stop-color="#00B9DB"/>
<stop offset="1" stop-color="#00387C"/>
</linearGradient>
<linearGradient id="paint16_linear_110_12" x1="93.3667" y1="8.97743" x2="99.4282" y2="165.233" gradientUnits="userSpaceOnUse">
<stop stop-color="#00B9DB"/>
<stop offset="1" stop-color="#00387C"/>
</linearGradient>
<linearGradient id="paint17_linear_110_12" x1="93.3667" y1="8.97743" x2="99.4282" y2="165.233" gradientUnits="userSpaceOnUse">
<stop stop-color="#00B9DB"/>
<stop offset="1" stop-color="#00387C"/>
</linearGradient>
<linearGradient id="paint18_linear_110_12" x1="93.3667" y1="8.97743" x2="99.4282" y2="165.233" gradientUnits="userSpaceOnUse">
<stop stop-color="#00B9DB"/>
<stop offset="1" stop-color="#00387C"/>
</linearGradient>
<linearGradient id="paint19_linear_110_12" x1="93.3667" y1="8.97743" x2="99.4282" y2="165.233" gradientUnits="userSpaceOnUse">
<stop stop-color="#00B9DB"/>
<stop offset="1" stop-color="#00387C"/>
</linearGradient>
<linearGradient id="paint20_linear_110_12" x1="93.3667" y1="8.97743" x2="99.4282" y2="165.233" gradientUnits="userSpaceOnUse">
<stop stop-color="#00B9DB"/>
<stop offset="1" stop-color="#00387C"/>
</linearGradient>
<linearGradient id="paint21_linear_110_12" x1="93.3667" y1="8.97743" x2="99.4282" y2="165.233" gradientUnits="userSpaceOnUse">
<stop stop-color="#00B9DB"/>
<stop offset="1" stop-color="#00387C"/>
</linearGradient>
<linearGradient id="paint22_linear_110_12" x1="93.3667" y1="8.97743" x2="99.4282" y2="165.233" gradientUnits="userSpaceOnUse">
<stop stop-color="#00B9DB"/>
<stop offset="1" stop-color="#00387C"/>
</linearGradient>
<linearGradient id="paint23_linear_110_12" x1="93.3667" y1="8.97743" x2="99.4282" y2="165.233" gradientUnits="userSpaceOnUse">
<stop stop-color="#00B9DB"/>
<stop offset="1" stop-color="#00387C"/>
</linearGradient>
<linearGradient id="paint24_linear_110_12" x1="93.3667" y1="8.97743" x2="99.4282" y2="165.233" gradientUnits="userSpaceOnUse">
<stop stop-color="#00B9DB"/>
<stop offset="1" stop-color="#00387C"/>
</linearGradient>
<linearGradient id="paint25_linear_110_12" x1="93.3667" y1="8.97743" x2="99.4282" y2="165.233" gradientUnits="userSpaceOnUse">
<stop stop-color="#00B9DB"/>
<stop offset="1" stop-color="#00387C"/>
</linearGradient>
<linearGradient id="paint26_linear_110_12" x1="93.3667" y1="8.97743" x2="99.4282" y2="165.233" gradientUnits="userSpaceOnUse">
<stop stop-color="#00B9DB"/>
<stop offset="1" stop-color="#00387C"/>
</linearGradient>
<linearGradient id="paint27_linear_110_12" x1="93.3667" y1="8.97743" x2="99.4282" y2="165.233" gradientUnits="userSpaceOnUse">
<stop stop-color="#00B9DB"/>
<stop offset="1" stop-color="#00387C"/>
</linearGradient>
<linearGradient id="paint28_linear_110_12" x1="93.3667" y1="8.97743" x2="99.4282" y2="165.233" gradientUnits="userSpaceOnUse">
<stop stop-color="#00B9DB"/>
<stop offset="1" stop-color="#00387C"/>
</linearGradient>
<linearGradient id="paint29_linear_110_12" x1="93.3667" y1="8.97743" x2="99.4282" y2="165.233" gradientUnits="userSpaceOnUse">
<stop stop-color="#00B9DB"/>
<stop offset="1" stop-color="#00387C"/>
</linearGradient>
<linearGradient id="paint30_linear_110_12" x1="93.3667" y1="8.97743" x2="99.4282" y2="165.233" gradientUnits="userSpaceOnUse">
<stop stop-color="#00B9DB"/>
<stop offset="1" stop-color="#00387C"/>
</linearGradient>
<linearGradient id="paint31_linear_110_12" x1="93.3667" y1="8.97743" x2="99.4282" y2="165.233" gradientUnits="userSpaceOnUse">
<stop stop-color="#00B9DB"/>
<stop offset="1" stop-color="#00387C"/>
</linearGradient>
<linearGradient id="paint32_linear_110_12" x1="93.3667" y1="8.97743" x2="99.4282" y2="165.233" gradientUnits="userSpaceOnUse">
<stop stop-color="#00B9DB"/>
<stop offset="1" stop-color="#00387C"/>
</linearGradient>
<linearGradient id="paint33_linear_110_12" x1="93.3667" y1="8.97743" x2="99.4282" y2="165.233" gradientUnits="userSpaceOnUse">
<stop stop-color="#00B9DB"/>
<stop offset="1" stop-color="#00387C"/>
</linearGradient>
<linearGradient id="paint34_linear_110_12" x1="93.3667" y1="8.97743" x2="99.4282" y2="165.233" gradientUnits="userSpaceOnUse">
<stop stop-color="#00B9DB"/>
<stop offset="1" stop-color="#00387C"/>
</linearGradient>
<linearGradient id="paint35_linear_110_12" x1="93.3667" y1="8.97743" x2="99.4282" y2="165.233" gradientUnits="userSpaceOnUse">
<stop stop-color="#00B9DB"/>
<stop offset="1" stop-color="#00387C"/>
</linearGradient>
</defs>
</svg>
