<svg width="95" height="165" viewBox="0 0 95 165" fill="none" xmlns="http://www.w3.org/2000/svg">
<g id="Vector" opacity="0.4">
<path d="M11.8821 77.9925C14.4438 80.5452 14.451 84.6911 11.8984 87.2527C9.34573 89.8143 5.19981 89.8216 2.6382 87.2689C0.0765941 84.7163 0.069326 80.5704 2.62197 78.0088C5.17461 75.4472 9.32053 75.4399 11.8821 77.9925Z" fill="url(#paint0_linear_110_226)"/>
<path d="M26.9563 93.0139C29.5179 95.5666 29.5252 99.7125 26.9725 102.274C24.4199 104.836 20.274 104.843 17.7124 102.29C15.1508 99.7377 15.1435 95.5918 17.6961 93.0302C20.2488 90.4686 24.3947 90.4613 26.9563 93.0139Z" fill="url(#paint1_linear_110_226)"/>
<path d="M42.0305 108.035C44.5921 110.588 44.5993 114.734 42.0467 117.296C39.4941 119.857 35.3481 119.864 32.7865 117.312C30.2249 114.759 30.2176 110.613 32.7703 108.052C35.3229 105.49 39.4689 105.483 42.0305 108.035Z" fill="url(#paint2_linear_110_226)"/>
<path d="M57.1046 123.057C59.6662 125.609 59.6735 129.755 57.1209 132.317C54.5682 134.879 50.4223 134.886 47.8607 132.333C45.2991 129.78 45.2918 125.635 47.8444 123.073C50.3971 120.511 54.543 120.504 57.1046 123.057Z" fill="url(#paint3_linear_110_226)"/>
<path d="M72.1788 138.078C74.7404 140.631 74.7477 144.777 72.195 147.338C69.6424 149.9 65.4965 149.907 62.9348 147.355C60.3732 144.802 60.366 140.656 62.9186 138.094C65.4713 135.533 69.6172 135.525 72.1788 138.078Z" fill="url(#paint4_linear_110_226)"/>
<path d="M87.2529 153.1C89.8145 155.652 89.8218 159.798 87.2692 162.36C84.7165 164.921 80.5706 164.929 78.009 162.376C75.4474 159.823 75.4401 155.677 77.9928 153.116C80.5454 150.554 84.6913 150.547 87.2529 153.1Z" fill="url(#paint5_linear_110_226)"/>
<path d="M26.9035 62.9184C29.4651 65.471 29.4724 69.6169 26.9198 72.1785C24.3671 74.7402 20.2212 74.7474 17.6596 72.1948C15.098 69.6421 15.0907 65.4962 17.6434 62.9346C20.196 60.373 24.3419 60.3657 26.9035 62.9184Z" fill="url(#paint6_linear_110_226)"/>
<path d="M41.9777 77.9398C44.5393 80.4924 44.5466 84.6383 41.9939 87.1999C39.4413 89.7616 35.2954 89.7688 32.7338 87.2162C30.1722 84.6635 30.1649 80.5176 32.7175 77.956C35.2702 75.3944 39.4161 75.3871 41.9777 77.9398Z" fill="url(#paint7_linear_110_226)"/>
<path d="M57.0519 92.9612C59.6135 95.5138 59.6207 99.6597 57.0681 102.221C54.5155 104.783 50.3695 104.79 47.8079 102.238C45.2463 99.6849 45.239 95.539 47.7917 92.9774C50.3443 90.4158 54.4902 90.4085 57.0519 92.9612Z" fill="url(#paint8_linear_110_226)"/>
<path d="M72.126 107.983C74.6876 110.535 74.6949 114.681 72.1423 117.243C69.5896 119.804 65.4437 119.812 62.8821 117.259C60.3205 114.706 60.3132 110.56 62.8658 107.999C65.4185 105.437 69.5644 105.43 72.126 107.983Z" fill="url(#paint9_linear_110_226)"/>
<path d="M87.2002 123.004C89.7618 125.557 89.7691 129.703 87.2164 132.264C84.6638 134.826 80.5179 134.833 77.9562 132.28C75.3946 129.728 75.3874 125.582 77.94 123.02C80.4927 120.459 84.6386 120.451 87.2002 123.004Z" fill="url(#paint10_linear_110_226)"/>
<path d="M102.274 138.025C104.836 140.578 104.843 144.724 102.291 147.286C99.7379 149.847 95.592 149.854 93.0304 147.302C90.4688 144.749 90.4615 140.603 93.0142 138.042C95.5668 135.48 99.7127 135.473 102.274 138.025Z" fill="url(#paint11_linear_110_226)"/>
<path d="M41.9249 47.8442C44.4866 50.3969 44.4938 54.5428 41.9412 57.1044C39.3885 59.666 35.2426 59.6733 32.681 57.1206C30.1194 54.568 30.1121 50.4221 32.6648 47.8605C35.2174 45.2988 39.3633 45.2916 41.9249 47.8442Z" fill="url(#paint12_linear_110_226)"/>
<path d="M56.9991 62.8656C59.5607 65.4183 59.568 69.5642 57.0153 72.1258C54.4627 74.6874 50.3168 74.6947 47.7552 72.142C45.1936 69.5894 45.1863 65.4435 47.7389 62.8819C50.2916 60.3202 54.4375 60.313 56.9991 62.8656Z" fill="url(#paint13_linear_110_226)"/>
<path d="M72.0733 77.887C74.6349 80.4397 74.6421 84.5856 72.0895 87.1472C69.5369 89.7088 65.3909 89.7161 62.8293 87.1634C60.2677 84.6108 60.2604 80.4649 62.8131 77.9033C65.3657 75.3416 69.5117 75.3344 72.0733 77.887Z" fill="url(#paint14_linear_110_226)"/>
<path d="M87.1474 92.9084C89.709 95.4611 89.7163 99.607 87.1637 102.169C84.611 104.73 80.4651 104.737 77.9035 102.185C75.3419 99.6322 75.3346 95.4863 77.8872 92.9247C80.4399 90.363 84.5858 90.3558 87.1474 92.9084Z" fill="url(#paint15_linear_110_226)"/>
<path d="M102.222 107.93C104.783 110.482 104.79 114.628 102.238 117.19C99.6852 119.752 95.5393 119.759 92.9776 117.206C90.416 114.654 90.4088 110.508 92.9614 107.946C95.5141 105.384 99.66 105.377 102.222 107.93Z" fill="url(#paint16_linear_110_226)"/>
<path d="M117.296 122.951C119.857 125.504 119.865 129.65 117.312 132.211C114.759 134.773 110.613 134.78 108.052 132.228C105.49 129.675 105.483 125.529 108.036 122.967C110.588 120.406 114.734 120.399 117.296 122.951Z" fill="url(#paint17_linear_110_226)"/>
<path d="M56.9463 32.7701C59.508 35.3227 59.5152 39.4686 56.9626 42.0302C54.4099 44.5918 50.264 44.5991 47.7024 42.0465C45.1408 39.4938 45.1335 35.3479 47.6862 32.7863C50.2388 30.2247 54.3847 30.2174 56.9463 32.7701Z" fill="url(#paint18_linear_110_226)"/>
<path d="M72.0205 47.7915C74.5821 50.3441 74.5894 54.49 72.0367 57.0516C69.4841 59.6132 65.3382 59.6205 62.7766 57.0679C60.215 54.5152 60.2077 50.3693 62.7603 47.8077C65.313 45.2461 69.4589 45.2388 72.0205 47.7915Z" fill="url(#paint19_linear_110_226)"/>
<path d="M87.0947 62.8129C89.6563 65.3655 89.6635 69.5114 87.1109 72.073C84.5583 74.6346 80.4123 74.6419 77.8507 72.0893C75.2891 69.5366 75.2818 65.3907 77.8345 62.8291C80.3871 60.2675 84.5331 60.2602 87.0947 62.8129Z" fill="url(#paint20_linear_110_226)"/>
<path d="M102.169 77.8343C104.73 80.3869 104.738 84.5328 102.185 87.0944C99.6324 89.656 95.4865 89.6633 92.9249 87.1107C90.3633 84.558 90.356 80.4121 92.9086 77.8505C95.4613 75.2889 99.6072 75.2816 102.169 77.8343Z" fill="url(#paint21_linear_110_226)"/>
<path d="M117.243 92.8557C119.805 95.4083 119.812 99.5542 117.259 102.116C114.707 104.677 110.561 104.685 107.999 102.132C105.437 99.5794 105.43 95.4335 107.983 92.8719C110.535 90.3103 114.681 90.303 117.243 92.8557Z" fill="url(#paint22_linear_110_226)"/>
<path d="M132.317 107.877C134.879 110.43 134.886 114.576 132.333 117.137C129.781 119.699 125.635 119.706 123.073 117.153C120.512 114.601 120.504 110.455 123.057 107.893C125.61 105.332 129.756 105.324 132.317 107.877Z" fill="url(#paint23_linear_110_226)"/>
<path d="M71.9677 17.6959C74.5294 20.2485 74.5366 24.3945 71.984 26.9561C69.4313 29.5177 65.2854 29.5249 62.7238 26.9723C60.1622 24.4197 60.1549 20.2737 62.7076 17.7121C65.2602 15.1505 69.4061 15.1433 71.9677 17.6959Z" fill="url(#paint24_linear_110_226)"/>
<path d="M87.0419 32.7173C89.6035 35.2699 89.6108 39.4159 87.0581 41.9775C84.5055 44.5391 80.3596 44.5463 77.798 41.9937C75.2364 39.4411 75.2291 35.2951 77.7817 32.7335C80.3344 30.1719 84.4803 30.1647 87.0419 32.7173Z" fill="url(#paint25_linear_110_226)"/>
<path d="M102.116 47.7387C104.678 50.2913 104.685 54.4373 102.132 56.9989C99.5797 59.5605 95.4337 59.5677 92.8721 57.0151C90.3105 54.4625 90.3032 50.3165 92.8559 47.7549C95.4085 45.1933 99.5545 45.1861 102.116 47.7387Z" fill="url(#paint26_linear_110_226)"/>
<path d="M117.19 62.7601C119.752 65.3127 119.759 69.4587 117.206 72.0203C114.654 74.5819 110.508 74.5891 107.946 72.0365C105.385 69.4839 105.377 65.3379 107.93 62.7763C110.483 60.2147 114.629 60.2075 117.19 62.7601Z" fill="url(#paint27_linear_110_226)"/>
<path d="M132.264 77.7815C134.826 80.3341 134.833 84.4801 132.281 87.0417C129.728 89.6033 125.582 89.6105 123.02 87.0579C120.459 84.5053 120.452 80.3593 123.004 77.7977C125.557 75.2361 129.703 75.2289 132.264 77.7815Z" fill="url(#paint28_linear_110_226)"/>
<path d="M147.339 92.8029C149.9 95.3555 149.907 99.5015 147.355 102.063C144.802 104.625 140.656 104.632 138.095 102.079C135.533 99.5267 135.526 95.3807 138.078 92.8191C140.631 90.2575 144.777 90.2503 147.339 92.8029Z" fill="url(#paint29_linear_110_226)"/>
<path d="M86.9891 2.62174C89.5507 5.17438 89.558 9.3203 87.0054 11.8819C84.4527 14.4435 80.3068 14.4508 77.7452 11.8981C75.1836 9.3455 75.1763 5.19958 77.729 2.63797C80.2816 0.0763632 84.4275 0.0690972 86.9891 2.62174Z" fill="url(#paint30_linear_110_226)"/>
<path d="M102.063 17.6431C104.625 20.1958 104.632 24.3417 102.08 26.9033C99.5269 29.4649 95.381 29.4722 92.8194 26.9195C90.2578 24.3669 90.2505 20.221 92.8031 17.6594C95.3558 15.0978 99.5017 15.0905 102.063 17.6431Z" fill="url(#paint31_linear_110_226)"/>
<path d="M117.137 32.6645C119.699 35.2172 119.706 39.3631 117.154 41.9247C114.601 44.4863 110.455 44.4936 107.894 41.9409C105.332 39.3883 105.325 35.2424 107.877 32.6808C110.43 30.1192 114.576 30.1119 117.137 32.6645Z" fill="url(#paint32_linear_110_226)"/>
<path d="M132.212 47.6859C134.773 50.2386 134.78 54.3845 132.228 56.9461C129.675 59.5077 125.529 59.515 122.968 56.9623C120.406 54.4097 120.399 50.2638 122.951 47.7022C125.504 45.1406 129.65 45.1333 132.212 47.6859Z" fill="url(#paint33_linear_110_226)"/>
<path d="M147.286 62.7073C149.847 65.26 149.855 69.4059 147.302 71.9675C144.749 74.5291 140.603 74.5364 138.042 71.9837C135.48 69.4311 135.473 65.2852 138.026 62.7236C140.578 60.162 144.724 60.1547 147.286 62.7073Z" fill="url(#paint34_linear_110_226)"/>
<path d="M162.36 77.7287C164.922 80.2814 164.929 84.4273 162.376 86.9889C159.824 89.5505 155.678 89.5578 153.116 87.0051C150.554 84.4525 150.547 80.3066 153.1 77.745C155.652 75.1834 159.798 75.1761 162.36 77.7287Z" fill="url(#paint35_linear_110_226)"/>
</g>
<defs>
<linearGradient id="paint0_linear_110_226" x1="93.3667" y1="8.97694" x2="99.4282" y2="165.232" gradientUnits="userSpaceOnUse">
<stop stop-color="#00B9DB"/>
<stop offset="1" stop-color="#00387C"/>
</linearGradient>
<linearGradient id="paint1_linear_110_226" x1="93.3667" y1="8.97694" x2="99.4282" y2="165.232" gradientUnits="userSpaceOnUse">
<stop stop-color="#00B9DB"/>
<stop offset="1" stop-color="#00387C"/>
</linearGradient>
<linearGradient id="paint2_linear_110_226" x1="93.3667" y1="8.97694" x2="99.4282" y2="165.232" gradientUnits="userSpaceOnUse">
<stop stop-color="#00B9DB"/>
<stop offset="1" stop-color="#00387C"/>
</linearGradient>
<linearGradient id="paint3_linear_110_226" x1="93.3667" y1="8.97694" x2="99.4282" y2="165.232" gradientUnits="userSpaceOnUse">
<stop stop-color="#00B9DB"/>
<stop offset="1" stop-color="#00387C"/>
</linearGradient>
<linearGradient id="paint4_linear_110_226" x1="93.3667" y1="8.97694" x2="99.4282" y2="165.232" gradientUnits="userSpaceOnUse">
<stop stop-color="#00B9DB"/>
<stop offset="1" stop-color="#00387C"/>
</linearGradient>
<linearGradient id="paint5_linear_110_226" x1="93.3667" y1="8.97694" x2="99.4282" y2="165.232" gradientUnits="userSpaceOnUse">
<stop stop-color="#00B9DB"/>
<stop offset="1" stop-color="#00387C"/>
</linearGradient>
<linearGradient id="paint6_linear_110_226" x1="93.3667" y1="8.97694" x2="99.4282" y2="165.232" gradientUnits="userSpaceOnUse">
<stop stop-color="#00B9DB"/>
<stop offset="1" stop-color="#00387C"/>
</linearGradient>
<linearGradient id="paint7_linear_110_226" x1="93.3667" y1="8.97694" x2="99.4282" y2="165.232" gradientUnits="userSpaceOnUse">
<stop stop-color="#00B9DB"/>
<stop offset="1" stop-color="#00387C"/>
</linearGradient>
<linearGradient id="paint8_linear_110_226" x1="93.3667" y1="8.97694" x2="99.4282" y2="165.232" gradientUnits="userSpaceOnUse">
<stop stop-color="#00B9DB"/>
<stop offset="1" stop-color="#00387C"/>
</linearGradient>
<linearGradient id="paint9_linear_110_226" x1="93.3667" y1="8.97694" x2="99.4282" y2="165.232" gradientUnits="userSpaceOnUse">
<stop stop-color="#00B9DB"/>
<stop offset="1" stop-color="#00387C"/>
</linearGradient>
<linearGradient id="paint10_linear_110_226" x1="93.3667" y1="8.97694" x2="99.4282" y2="165.232" gradientUnits="userSpaceOnUse">
<stop stop-color="#00B9DB"/>
<stop offset="1" stop-color="#00387C"/>
</linearGradient>
<linearGradient id="paint11_linear_110_226" x1="93.3667" y1="8.97694" x2="99.4282" y2="165.232" gradientUnits="userSpaceOnUse">
<stop stop-color="#00B9DB"/>
<stop offset="1" stop-color="#00387C"/>
</linearGradient>
<linearGradient id="paint12_linear_110_226" x1="93.3667" y1="8.97694" x2="99.4282" y2="165.232" gradientUnits="userSpaceOnUse">
<stop stop-color="#00B9DB"/>
<stop offset="1" stop-color="#00387C"/>
</linearGradient>
<linearGradient id="paint13_linear_110_226" x1="93.3667" y1="8.97694" x2="99.4282" y2="165.232" gradientUnits="userSpaceOnUse">
<stop stop-color="#00B9DB"/>
<stop offset="1" stop-color="#00387C"/>
</linearGradient>
<linearGradient id="paint14_linear_110_226" x1="93.3667" y1="8.97694" x2="99.4282" y2="165.232" gradientUnits="userSpaceOnUse">
<stop stop-color="#00B9DB"/>
<stop offset="1" stop-color="#00387C"/>
</linearGradient>
<linearGradient id="paint15_linear_110_226" x1="93.3667" y1="8.97694" x2="99.4282" y2="165.232" gradientUnits="userSpaceOnUse">
<stop stop-color="#00B9DB"/>
<stop offset="1" stop-color="#00387C"/>
</linearGradient>
<linearGradient id="paint16_linear_110_226" x1="93.3667" y1="8.97694" x2="99.4282" y2="165.232" gradientUnits="userSpaceOnUse">
<stop stop-color="#00B9DB"/>
<stop offset="1" stop-color="#00387C"/>
</linearGradient>
<linearGradient id="paint17_linear_110_226" x1="93.3667" y1="8.97694" x2="99.4282" y2="165.232" gradientUnits="userSpaceOnUse">
<stop stop-color="#00B9DB"/>
<stop offset="1" stop-color="#00387C"/>
</linearGradient>
<linearGradient id="paint18_linear_110_226" x1="93.3667" y1="8.97694" x2="99.4282" y2="165.232" gradientUnits="userSpaceOnUse">
<stop stop-color="#00B9DB"/>
<stop offset="1" stop-color="#00387C"/>
</linearGradient>
<linearGradient id="paint19_linear_110_226" x1="93.3667" y1="8.97694" x2="99.4282" y2="165.232" gradientUnits="userSpaceOnUse">
<stop stop-color="#00B9DB"/>
<stop offset="1" stop-color="#00387C"/>
</linearGradient>
<linearGradient id="paint20_linear_110_226" x1="93.3667" y1="8.97694" x2="99.4282" y2="165.232" gradientUnits="userSpaceOnUse">
<stop stop-color="#00B9DB"/>
<stop offset="1" stop-color="#00387C"/>
</linearGradient>
<linearGradient id="paint21_linear_110_226" x1="93.3667" y1="8.97694" x2="99.4282" y2="165.232" gradientUnits="userSpaceOnUse">
<stop stop-color="#00B9DB"/>
<stop offset="1" stop-color="#00387C"/>
</linearGradient>
<linearGradient id="paint22_linear_110_226" x1="93.3667" y1="8.97694" x2="99.4282" y2="165.232" gradientUnits="userSpaceOnUse">
<stop stop-color="#00B9DB"/>
<stop offset="1" stop-color="#00387C"/>
</linearGradient>
<linearGradient id="paint23_linear_110_226" x1="93.3667" y1="8.97694" x2="99.4282" y2="165.232" gradientUnits="userSpaceOnUse">
<stop stop-color="#00B9DB"/>
<stop offset="1" stop-color="#00387C"/>
</linearGradient>
<linearGradient id="paint24_linear_110_226" x1="93.3667" y1="8.97694" x2="99.4282" y2="165.232" gradientUnits="userSpaceOnUse">
<stop stop-color="#00B9DB"/>
<stop offset="1" stop-color="#00387C"/>
</linearGradient>
<linearGradient id="paint25_linear_110_226" x1="93.3667" y1="8.97694" x2="99.4282" y2="165.232" gradientUnits="userSpaceOnUse">
<stop stop-color="#00B9DB"/>
<stop offset="1" stop-color="#00387C"/>
</linearGradient>
<linearGradient id="paint26_linear_110_226" x1="93.3667" y1="8.97694" x2="99.4282" y2="165.232" gradientUnits="userSpaceOnUse">
<stop stop-color="#00B9DB"/>
<stop offset="1" stop-color="#00387C"/>
</linearGradient>
<linearGradient id="paint27_linear_110_226" x1="93.3667" y1="8.97694" x2="99.4282" y2="165.232" gradientUnits="userSpaceOnUse">
<stop stop-color="#00B9DB"/>
<stop offset="1" stop-color="#00387C"/>
</linearGradient>
<linearGradient id="paint28_linear_110_226" x1="93.3667" y1="8.97694" x2="99.4282" y2="165.232" gradientUnits="userSpaceOnUse">
<stop stop-color="#00B9DB"/>
<stop offset="1" stop-color="#00387C"/>
</linearGradient>
<linearGradient id="paint29_linear_110_226" x1="93.3667" y1="8.97694" x2="99.4282" y2="165.232" gradientUnits="userSpaceOnUse">
<stop stop-color="#00B9DB"/>
<stop offset="1" stop-color="#00387C"/>
</linearGradient>
<linearGradient id="paint30_linear_110_226" x1="93.3667" y1="8.97694" x2="99.4282" y2="165.232" gradientUnits="userSpaceOnUse">
<stop stop-color="#00B9DB"/>
<stop offset="1" stop-color="#00387C"/>
</linearGradient>
<linearGradient id="paint31_linear_110_226" x1="93.3667" y1="8.97694" x2="99.4282" y2="165.232" gradientUnits="userSpaceOnUse">
<stop stop-color="#00B9DB"/>
<stop offset="1" stop-color="#00387C"/>
</linearGradient>
<linearGradient id="paint32_linear_110_226" x1="93.3667" y1="8.97694" x2="99.4282" y2="165.232" gradientUnits="userSpaceOnUse">
<stop stop-color="#00B9DB"/>
<stop offset="1" stop-color="#00387C"/>
</linearGradient>
<linearGradient id="paint33_linear_110_226" x1="93.3667" y1="8.97694" x2="99.4282" y2="165.232" gradientUnits="userSpaceOnUse">
<stop stop-color="#00B9DB"/>
<stop offset="1" stop-color="#00387C"/>
</linearGradient>
<linearGradient id="paint34_linear_110_226" x1="93.3667" y1="8.97694" x2="99.4282" y2="165.232" gradientUnits="userSpaceOnUse">
<stop stop-color="#00B9DB"/>
<stop offset="1" stop-color="#00387C"/>
</linearGradient>
<linearGradient id="paint35_linear_110_226" x1="93.3667" y1="8.97694" x2="99.4282" y2="165.232" gradientUnits="userSpaceOnUse">
<stop stop-color="#00B9DB"/>
<stop offset="1" stop-color="#00387C"/>
</linearGradient>
</defs>
</svg>
